<svg width="19" height="22" viewBox="0 0 19 22" fill="none" xmlns="http://www.w3.org/2000/svg">
<path d="M18.3426 17.1449C18.0099 17.9135 17.6161 18.6211 17.1598 19.2715C16.5378 20.1583 16.0286 20.7721 15.6361 21.113C15.0277 21.6724 14.3759 21.959 13.6779 21.9753C13.1768 21.9753 12.5725 21.8327 11.8691 21.5434C11.1633 21.2555 10.5148 21.113 9.92174 21.113C9.29978 21.113 8.63274 21.2555 7.91926 21.5434C7.20469 21.8327 6.62904 21.9834 6.18892 21.9984C5.51957 22.0269 4.85239 21.7322 4.18644 21.113C3.76139 20.7422 3.22974 20.1067 2.59285 19.2063C1.90951 18.2449 1.34772 17.13 0.907595 15.8589C0.43624 14.486 0.199951 13.1565 0.199951 11.8694C0.199951 10.3951 0.518534 9.12345 1.15665 8.05784C1.65815 7.20191 2.32533 6.52672 3.16035 6.03105C3.99537 5.53539 4.89761 5.2828 5.86925 5.26664C6.4009 5.26664 7.09809 5.43109 7.96448 5.75429C8.82843 6.07858 9.38316 6.24303 9.62638 6.24303C9.80821 6.24303 10.4245 6.05074 11.4692 5.66738C12.4571 5.31186 13.2909 5.16466 13.974 5.22264C15.8249 5.37202 17.2155 6.10167 18.1402 7.41619C16.4849 8.4192 15.666 9.82403 15.6823 11.6262C15.6972 13.03 16.2065 14.1981 17.2073 15.1256C17.6609 15.5561 18.1674 15.8888 18.731 16.1251C18.6087 16.4795 18.4797 16.819 18.3426 17.1449ZM14.0975 0.440369C14.0975 1.54062 13.6956 2.56792 12.8944 3.51878C11.9275 4.64917 10.758 5.30236 9.48976 5.19929C9.4736 5.06729 9.46423 4.92837 9.46423 4.78239C9.46423 3.72615 9.92404 2.59576 10.7406 1.67152C11.1483 1.20356 11.6667 0.814453 12.2955 0.504058C12.9229 0.198295 13.5163 0.0292007 14.0744 0.000244141C14.0907 0.147331 14.0975 0.294426 14.0975 0.440355V0.440369Z" fill="black"/>
</svg>
