<svg width="163" height="207" viewBox="0 0 163 207" fill="none" xmlns="http://www.w3.org/2000/svg">
<rect x="0.5" y="0.5" width="162" height="206" rx="7.5" stroke="#D0D5DD"/>
<rect x="12.5" y="12.5" width="39" height="39" rx="7.5" fill="white"/>
<rect x="12.5" y="12.5" width="39" height="39" rx="7.5" stroke="#EAECF0"/>
<path d="M32 39.5L31.9166 39.3749C31.3377 38.5066 31.0483 38.0725 30.6659 37.7582C30.3273 37.4799 29.9373 37.2712 29.518 37.1438C29.0443 37 28.5225 37 27.479 37H26.3333C25.3999 37 24.9332 37 24.5766 36.8183C24.263 36.6586 24.0081 36.4036 23.8483 36.09C23.6666 35.7335 23.6666 35.2668 23.6666 34.3333V27.1667C23.6666 26.2332 23.6666 25.7665 23.8483 25.41C24.0081 25.0964 24.263 24.8414 24.5766 24.6817C24.9332 24.5 25.3999 24.5 26.3333 24.5H26.6666C28.5335 24.5 29.4669 24.5 30.1799 24.8633C30.8071 25.1829 31.3171 25.6928 31.6366 26.32C32 27.0331 32 27.9665 32 29.8333M32 39.5V29.8333M32 39.5L32.0833 39.3749C32.6622 38.5066 32.9516 38.0725 33.334 37.7582C33.6726 37.4799 34.0627 37.2712 34.482 37.1438C34.9556 37 35.4774 37 36.5209 37H37.6666C38.6 37 39.0668 37 39.4233 36.8183C39.7369 36.6586 39.9918 36.4036 40.1516 36.09C40.3333 35.7335 40.3333 35.2668 40.3333 34.3333V27.1667C40.3333 26.2332 40.3333 25.7665 40.1516 25.41C39.9918 25.0964 39.7369 24.8414 39.4233 24.6817C39.0668 24.5 38.6 24.5 37.6666 24.5H37.3333C35.4665 24.5 34.533 24.5 33.82 24.8633C33.1928 25.1829 32.6828 25.6928 32.3633 26.32C32 27.0331 32 27.9665 32 29.8333" stroke="#344054" stroke-width="1.66667" stroke-linecap="round" stroke-linejoin="round"/>
<path d="M16.584 93V80.568L12.576 82.92V79.344L16.8 76.872H20.016V93H16.584ZM26.7939 89.856H35.0259V93H22.8819V90.624C22.8819 89.16 23.2179 88.032 23.9139 87.24C24.7059 86.304 25.9539 85.512 27.9939 84.648C30.8739 83.424 31.7379 82.704 31.7379 81.504C31.7379 80.352 30.7779 79.632 29.2179 79.632C27.3219 79.632 26.2179 80.664 26.0499 82.584L22.6419 82.32C22.8579 78.696 25.3779 76.512 29.2179 76.512C32.6979 76.512 35.1699 78.648 35.1699 81.528C35.1699 83.904 33.6819 85.512 30.4179 86.952C29.1459 87.504 28.3059 87.888 27.8979 88.104C27.5139 88.32 27.2499 88.536 27.0819 88.752C26.8659 89.04 26.7939 89.304 26.7939 89.856ZM36.2507 84.936C36.2507 79.752 39.1307 76.512 43.3067 76.512C47.4587 76.512 50.3387 79.752 50.3387 84.936C50.3387 90.12 47.4587 93.36 43.3067 93.36C39.1307 93.36 36.2507 90.12 36.2507 84.936ZM46.9067 84.936C46.9067 81.456 45.5867 79.632 43.3067 79.632C41.0027 79.632 39.6827 81.456 39.6827 84.936C39.6827 88.416 41.0027 90.24 43.3067 90.24C45.5867 90.24 46.9067 88.416 46.9067 84.936ZM57.3679 84.6C57.3679 79.296 60.2959 75.84 64.7839 75.84C68.3359 75.84 71.0959 78.288 71.4799 81.84L67.9999 82.416C67.6399 80.28 66.4879 79.08 64.7839 79.08C62.3599 79.08 60.9199 81.144 60.9199 84.6C60.9199 88.056 62.3599 90.12 64.7839 90.12C66.5839 90.12 67.7359 88.848 68.0479 86.52L71.5279 87.12C71.0959 90.888 68.4559 93.36 64.7839 93.36C60.2959 93.36 57.3679 89.904 57.3679 84.6ZM73.1531 93V75.48H76.5851V81.408H76.6331C77.3291 80.472 78.6011 79.92 79.9691 79.92C82.7051 79.92 84.6251 81.84 84.6251 84.624V93H81.1931V85.464C81.1931 83.952 80.3531 83.088 78.8891 83.088C77.4491 83.088 76.5851 84 76.5851 85.464V93H73.1531ZM86.5509 89.544C86.5509 87.408 87.8229 86.256 91.0869 85.464C93.1029 84.984 93.7269 84.624 93.7269 83.952C93.7269 83.208 93.1029 82.776 91.9749 82.776C90.6549 82.776 89.8149 83.496 89.5509 84.816L86.4069 84.12C86.5989 82.848 87.1989 81.84 88.2309 81.072C89.2629 80.304 90.5109 79.92 91.9749 79.92C95.1669 79.92 97.1829 81.768 97.1829 84.744V93H94.1109V91.992H94.0629C93.4629 92.88 92.2629 93.36 90.7269 93.36C88.2069 93.36 86.5509 91.848 86.5509 89.544ZM93.8469 88.704V86.856H93.7989C93.5829 87.24 93.0549 87.552 91.9029 87.864C90.3669 88.272 89.8389 88.656 89.8389 89.328C89.8389 90.096 90.3669 90.48 91.3989 90.48C92.8389 90.48 93.8469 89.76 93.8469 88.704ZM99.45 98.4V80.28H102.738V81.168H102.786C103.626 80.376 104.802 79.92 106.17 79.92C109.458 79.92 111.858 82.776 111.858 86.64C111.858 90.504 109.458 93.36 106.194 93.36C104.85 93.36 103.602 92.88 102.93 92.112H102.882V98.4H99.45ZM108.426 86.64C108.426 84.36 107.37 83.064 105.522 83.064C103.986 83.064 102.882 84.168 102.882 85.728V87.552C102.882 89.088 103.986 90.24 105.522 90.24C107.37 90.24 108.426 88.92 108.426 86.64Z" fill="#101828"/>
<path d="M13.296 121V109.8H15.328L18.8 118.264H18.832L22.304 109.8H24.336V121H22.704V112.6H22.672L19.152 121H18.464L14.96 112.6H14.928V121H13.296ZM26.2974 118.792C26.2974 117.368 27.1294 116.616 29.2894 116.104C30.8254 115.72 31.3054 115.416 31.3054 114.792C31.3054 114.104 30.7134 113.656 29.7534 113.656C28.7134 113.656 27.9934 114.264 27.7854 115.336L26.2654 115.016C26.4094 114.184 26.7934 113.528 27.4174 113.032C28.0574 112.536 28.8414 112.28 29.7534 112.28C31.7214 112.28 32.9374 113.384 32.9374 115.176V121H31.4974V120.184H31.4654C31.0014 120.84 30.1214 121.24 29.0814 121.24C27.4014 121.24 26.2974 120.28 26.2974 118.792ZM31.3854 118.136V116.456H31.3534C31.2094 116.824 30.7134 117.08 29.6894 117.352C28.3454 117.688 27.8334 118.056 27.8334 118.696C27.8334 119.416 28.3294 119.832 29.2734 119.832C30.5054 119.832 31.3854 119.112 31.3854 118.136ZM34.8041 121V112.52H36.3081V113.272H36.3401C36.8521 112.68 37.7961 112.28 38.6921 112.28C40.6281 112.28 41.8921 113.544 41.8921 115.528V121H40.3241V115.768C40.3241 114.504 39.6041 113.736 38.3881 113.736C37.1721 113.736 36.3721 114.552 36.3721 115.768V121H34.8041ZM44.0453 122.616L45.3733 121.864C45.9333 123 46.5413 123.416 47.6133 123.416C48.9093 123.416 49.6933 122.536 49.6933 121.112V120.184H49.6613C49.1973 120.84 48.3013 121.24 47.2293 121.24C45.0053 121.24 43.4373 119.384 43.4373 116.76C43.4373 114.152 45.0373 112.296 47.2453 112.296C48.2053 112.296 49.1013 112.68 49.6613 113.336H49.6933V112.52H51.2292V121.192C51.2292 123.368 49.7893 124.84 47.6133 124.84C45.9973 124.84 44.6693 124.008 44.0453 122.616ZM49.6613 117.496V116.04C49.6613 114.776 48.6533 113.752 47.3733 113.752C45.9493 113.752 45.0053 114.92 45.0053 116.76C45.0053 118.616 45.9493 119.784 47.4213 119.784C48.6693 119.784 49.6613 118.76 49.6613 117.496ZM52.813 118.792C52.813 117.368 53.645 116.616 55.805 116.104C57.341 115.72 57.821 115.416 57.821 114.792C57.821 114.104 57.229 113.656 56.269 113.656C55.229 113.656 54.509 114.264 54.301 115.336L52.781 115.016C52.925 114.184 53.309 113.528 53.933 113.032C54.573 112.536 55.357 112.28 56.269 112.28C58.237 112.28 59.453 113.384 59.453 115.176V121H58.013V120.184H57.981C57.517 120.84 56.637 121.24 55.597 121.24C53.917 121.24 52.813 120.28 52.813 118.792ZM57.901 118.136V116.456H57.869C57.725 116.824 57.229 117.08 56.205 117.352C54.861 117.688 54.349 118.056 54.349 118.696C54.349 119.416 54.845 119.832 55.789 119.832C57.021 119.832 57.901 119.112 57.901 118.136ZM71.2498 116.504V116.52L73.6658 121H71.8098L69.5058 116.632H67.5378V121H65.8898V109.8H70.1138C72.4658 109.8 73.8738 111.08 73.8738 113.208C73.8738 114.936 72.9138 116.136 71.2498 116.504ZM67.5378 115.112H69.9538C71.4418 115.112 72.2258 114.44 72.2258 113.208C72.2258 111.96 71.4738 111.336 69.9538 111.336H67.5378V115.112ZM74.7498 116.76C74.7498 114.12 76.3658 112.28 78.6858 112.28C80.9898 112.28 82.5258 114.024 82.5258 116.568V117.224H76.3338C76.3498 117.976 76.5738 118.616 77.0058 119.112C77.4378 119.608 77.9978 119.848 78.6858 119.848C79.7578 119.848 80.3978 119.432 81.1018 118.296L82.3177 119.112C81.5658 120.52 80.3178 121.24 78.7018 121.24C76.3498 121.24 74.7498 119.432 74.7498 116.76ZM76.3658 116.024H80.9738C80.9098 114.632 80.0298 113.672 78.6858 113.672C77.4058 113.672 76.3978 114.744 76.3658 116.024ZM83.7193 118.792C83.7193 117.368 84.5513 116.616 86.7113 116.104C88.2473 115.72 88.7273 115.416 88.7273 114.792C88.7273 114.104 88.1353 113.656 87.1753 113.656C86.1353 113.656 85.4153 114.264 85.2073 115.336L83.6873 115.016C83.8313 114.184 84.2153 113.528 84.8393 113.032C85.4793 112.536 86.2633 112.28 87.1753 112.28C89.1433 112.28 90.3593 113.384 90.3593 115.176V121H88.9193V120.184H88.8873C88.4233 120.84 87.5433 121.24 86.5033 121.24C84.8233 121.24 83.7193 120.28 83.7193 118.792ZM88.8073 118.136V116.456H88.7753C88.6313 116.824 88.1353 117.08 87.1113 117.352C85.7673 117.688 85.2553 118.056 85.2553 118.696C85.2553 119.416 85.7513 119.832 86.6953 119.832C87.9273 119.832 88.8073 119.112 88.8073 118.136ZM91.906 116.76C91.906 114.136 93.506 112.28 95.714 112.28C96.674 112.28 97.538 112.664 98.098 113.288H98.13V109.32H99.698V121H98.226V120.184H98.194C97.666 120.84 96.738 121.24 95.698 121.24C93.506 121.24 91.906 119.384 91.906 116.76ZM98.13 117.496V116.008C98.13 114.76 97.122 113.736 95.842 113.736C94.386 113.736 93.474 114.904 93.474 116.76C93.474 118.616 94.418 119.784 95.89 119.784C97.138 119.784 98.13 118.76 98.13 117.496Z" fill="#667085"/>
<g style="mix-blend-mode:multiply">
<rect x="12" y="169" width="80" height="26" rx="13" fill="#ECFDF3"/>
<path d="M23.3417 187V185.886L26.787 182.317C27.1549 181.929 27.4582 181.589 27.6968 181.298C27.9388 181.003 28.1194 180.723 28.2387 180.457C28.358 180.192 28.4177 179.911 28.4177 179.612C28.4177 179.274 28.3382 178.982 28.1791 178.737C28.02 178.489 27.8029 178.298 27.5278 178.165C27.2527 178.03 26.9428 177.962 26.5981 177.962C26.2335 177.962 25.9153 178.036 25.6436 178.185C25.3718 178.335 25.163 178.545 25.0171 178.817C24.8713 179.089 24.7984 179.407 24.7984 179.771H23.3318C23.3318 179.152 23.4743 178.61 23.7593 178.146C24.0444 177.682 24.4355 177.322 24.9326 177.067C25.4298 176.808 25.9949 176.679 26.6279 176.679C27.2676 176.679 27.8311 176.807 28.3183 177.062C28.8088 177.314 29.1916 177.658 29.4667 178.096C29.7418 178.53 29.8794 179.021 29.8794 179.567C29.8794 179.945 29.8081 180.315 29.6656 180.676C29.5264 181.037 29.2828 181.44 28.9347 181.884C28.5867 182.325 28.1028 182.86 27.483 183.49L25.4596 185.608V185.683H30.0434V187H23.3417ZM31.4951 185.011V183.768L35.895 176.818H36.8744V178.648H36.2529L33.1059 183.629V183.709H39.1365V185.011H31.4951ZM36.3225 187V184.634L36.3325 184.067V176.818H37.7892V187H36.3225ZM42.4401 185.608L42.3655 186.15C42.3158 186.548 42.2313 186.962 42.1119 187.393C41.9959 187.827 41.875 188.23 41.749 188.601C41.6264 188.972 41.5253 189.267 41.4458 189.486H40.3918C40.4349 189.28 40.4945 189.002 40.5708 188.651C40.647 188.303 40.7216 187.913 40.7945 187.482C40.8674 187.051 40.9221 186.612 40.9585 186.165L41.0083 185.608H42.4401ZM47.618 187.139C46.9054 187.139 46.2757 187.017 45.7288 186.771C45.1852 186.526 44.7593 186.188 44.4511 185.757C44.1428 185.326 43.9904 184.836 43.9937 184.286C43.9904 183.855 44.0782 183.459 44.2572 183.097C44.4395 182.733 44.6864 182.429 44.998 182.188C45.3095 181.942 45.6575 181.786 46.042 181.72V181.661C45.5349 181.538 45.1289 181.266 44.824 180.845C44.519 180.424 44.3682 179.94 44.3715 179.393C44.3682 178.873 44.5058 178.409 44.7842 178.001C45.0659 177.59 45.452 177.267 45.9426 177.032C46.4331 176.797 46.9916 176.679 47.618 176.679C48.2378 176.679 48.7913 176.798 49.2785 177.037C49.769 177.272 50.1552 177.595 50.4369 178.006C50.7186 178.414 50.8611 178.876 50.8644 179.393C50.8611 179.94 50.7053 180.424 50.3971 180.845C50.0889 181.266 49.6878 181.538 49.194 181.661V181.72C49.5751 181.786 49.9182 181.942 50.2231 182.188C50.5313 182.429 50.7766 182.733 50.9589 183.097C51.1445 183.459 51.239 183.855 51.2423 184.286C51.239 184.836 51.0832 185.326 50.7749 185.757C50.4667 186.188 50.0392 186.526 49.4923 186.771C48.9487 187.017 48.324 187.139 47.618 187.139ZM47.618 185.881C48.0389 185.881 48.4035 185.812 48.7117 185.673C49.02 185.53 49.2586 185.333 49.4276 185.081C49.5967 184.826 49.6829 184.527 49.6862 184.186C49.6829 183.831 49.5901 183.518 49.4078 183.246C49.2288 182.975 48.9852 182.761 48.6769 182.605C48.3687 182.449 48.0157 182.371 47.618 182.371C47.2169 182.371 46.8606 182.449 46.5491 182.605C46.2375 182.761 45.9923 182.975 45.8133 183.246C45.6343 183.518 45.5465 183.831 45.5498 184.186C45.5465 184.527 45.6277 184.826 45.7934 185.081C45.9624 185.333 46.2027 185.53 46.5143 185.673C46.8258 185.812 47.1937 185.881 47.618 185.881ZM47.618 181.143C47.9561 181.143 48.256 181.076 48.5178 180.94C48.7797 180.804 48.9852 180.615 49.1343 180.373C49.2868 180.131 49.3647 179.848 49.368 179.523C49.3647 179.205 49.2884 178.926 49.1393 178.688C48.9935 178.449 48.7896 178.265 48.5278 178.136C48.266 178.003 47.9627 177.937 47.618 177.937C47.2667 177.937 46.9584 178.003 46.6933 178.136C46.4314 178.265 46.2276 178.449 46.0818 178.688C45.9359 178.926 45.8647 179.205 45.868 179.523C45.8647 179.848 45.9376 180.131 46.0867 180.373C46.2359 180.615 46.4414 180.804 46.7032 180.94C46.9684 181.076 47.2733 181.143 47.618 181.143ZM58.338 185.091V184.554C58.338 184.17 58.4175 183.818 58.5766 183.5C58.739 183.179 58.9743 182.922 59.2826 182.729C59.5941 182.534 59.9703 182.436 60.4111 182.436C60.8619 182.436 61.2397 182.532 61.5447 182.724C61.8496 182.917 62.0799 183.174 62.2357 183.495C62.3948 183.817 62.4743 184.17 62.4743 184.554V185.091C62.4743 185.475 62.3948 185.828 62.2357 186.15C62.0766 186.468 61.843 186.725 61.5347 186.92C61.2298 187.113 60.8553 187.209 60.4111 187.209C59.9637 187.209 59.5858 187.113 59.2776 186.92C58.9694 186.725 58.7357 186.468 58.5766 186.15C58.4175 185.828 58.338 185.475 58.338 185.091ZM59.4964 184.554V185.091C59.4964 185.376 59.5643 185.634 59.7002 185.866C59.8361 186.098 60.0731 186.214 60.4111 186.214C60.7459 186.214 60.9796 186.098 61.1121 185.866C61.2447 185.634 61.311 185.376 61.311 185.091V184.554C61.311 184.269 61.2464 184.01 61.1171 183.778C60.9912 183.546 60.7558 183.43 60.4111 183.43C60.0797 183.43 59.8444 183.546 59.7052 183.778C59.566 184.01 59.4964 184.269 59.4964 184.554ZM53.2172 179.264V178.727C53.2172 178.343 53.2968 177.99 53.4559 177.668C53.6183 177.347 53.8536 177.09 54.1618 176.898C54.4734 176.705 54.8496 176.609 55.2904 176.609C55.7412 176.609 56.119 176.705 56.4239 176.898C56.7288 177.09 56.9592 177.347 57.115 177.668C57.2707 177.99 57.3486 178.343 57.3486 178.727V179.264C57.3486 179.649 57.2691 180.002 57.11 180.323C56.9542 180.641 56.7222 180.898 56.414 181.094C56.109 181.286 55.7345 181.382 55.2904 181.382C54.8396 181.382 54.4601 181.286 54.1519 181.094C53.847 180.898 53.615 180.641 53.4559 180.323C53.2968 180.002 53.2172 179.649 53.2172 179.264ZM54.3806 178.727V179.264C54.3806 179.549 54.4469 179.808 54.5795 180.04C54.7153 180.272 54.9523 180.388 55.2904 180.388C55.6218 180.388 55.8538 180.272 55.9864 180.04C56.1223 179.808 56.1903 179.549 56.1903 179.264V178.727C56.1903 178.442 56.1256 178.184 55.9964 177.952C55.8671 177.72 55.6318 177.604 55.2904 177.604C54.959 177.604 54.7236 177.72 54.5844 177.952C54.4485 178.184 54.3806 178.442 54.3806 178.727ZM53.6895 187L60.6895 176.818H61.8778L54.8778 187H53.6895Z" fill="#027A48"/>
<path d="M82.6667 178.667L77.421 183.913C77.1569 184.177 77.0249 184.309 76.8727 184.358C76.7388 184.401 76.5946 184.401 76.4607 184.358C76.3085 184.309 76.1765 184.177 75.9125 183.913L74.0876 182.088C73.8236 181.824 73.6916 181.692 73.5394 181.642C73.4055 181.599 73.2613 181.599 73.1274 181.642C72.9751 181.692 72.8431 181.824 72.5791 182.088L69.3334 185.333M82.6667 178.667H78M82.6667 178.667V183.333" stroke="#027A48" stroke-width="1.5" stroke-linecap="round" stroke-linejoin="round"/>
</g>
</svg>
