<svg width="365" height="365" viewBox="0 0 365 365" fill="none" xmlns="http://www.w3.org/2000/svg">
<g filter="url(#filter0_dd_51_3587)">
<rect x="3" y="2" width="359" height="359" rx="12" fill="white"/>
<g filter="url(#filter1_d_51_3587)">
<rect x="15" y="14" width="134" height="38" rx="8" fill="white"/>
<rect x="15.5" y="14.5" width="133" height="37" rx="7.5" stroke="#D0D5DD"/>
<path d="M23.674 37V29.44L21.392 30.812V29.034L23.8 27.592H25.354V37H23.674ZM29.0617 35.46H34.0317V37H27.1717V35.782C27.1717 34.97 27.3537 34.326 27.7037 33.864C28.1097 33.304 28.8097 32.856 30.1117 32.254C31.9317 31.414 32.4497 30.98 32.4497 30.196C32.4497 29.426 31.7917 28.936 30.7697 28.936C29.5377 28.936 28.7957 29.608 28.6837 30.854L27.0177 30.728C27.1717 28.656 28.5857 27.382 30.7697 27.382C32.7017 27.382 34.1297 28.586 34.1297 30.196C34.1297 31.554 33.3037 32.464 31.3297 33.374C30.5317 33.738 30.0137 33.99 29.7617 34.144C29.5097 34.298 29.3417 34.452 29.2437 34.62C29.1177 34.83 29.0757 35.012 29.0617 35.46ZM38.2204 34.172L39.9004 33.948C40.0124 35.124 40.4324 35.6 41.3704 35.6C42.2524 35.6 42.7284 34.97 42.7284 33.794V27.2H44.4784V33.962C44.4784 35.964 43.1764 37.21 41.3704 37.21C39.4804 37.21 38.3464 36.146 38.2204 34.172ZM46.005 35.026C46.005 33.78 46.747 33.108 48.651 32.66C49.897 32.338 50.289 32.114 50.289 31.652C50.289 31.134 49.841 30.812 49.099 30.812C48.259 30.812 47.685 31.302 47.531 32.128L45.949 31.792C46.075 31.064 46.411 30.476 46.985 30.042C47.559 29.594 48.273 29.37 49.099 29.37C50.891 29.37 52.011 30.392 52.011 32.058V37H50.485V36.356H50.457C50.079 36.902 49.351 37.21 48.441 37.21C46.971 37.21 46.005 36.356 46.005 35.026ZM50.359 34.494V33.22H50.331C50.177 33.486 49.827 33.682 49.043 33.906C48.021 34.172 47.629 34.452 47.629 34.914C47.629 35.474 47.993 35.754 48.721 35.754C49.687 35.754 50.359 35.236 50.359 34.494ZM53.4751 37V29.58H55.0851V30.238H55.1131C55.5471 29.72 56.3591 29.37 57.1571 29.37C58.8371 29.37 59.9291 30.504 59.9291 32.24V37H58.2491V32.506C58.2491 31.512 57.6891 30.938 56.7231 30.938C55.7571 30.938 55.1551 31.554 55.1551 32.506V37H53.4751ZM64.8735 33.654V32.1H68.6675V33.654H64.8735ZM75.5998 37V29.44L73.3178 30.812V29.034L75.7258 27.592H77.2798V37H75.5998ZM80.9875 35.46H85.9575V37H79.0975V35.782C79.0975 34.97 79.2795 34.326 79.6295 33.864C80.0355 33.304 80.7355 32.856 82.0375 32.254C83.8575 31.414 84.3755 30.98 84.3755 30.196C84.3755 29.426 83.7175 28.936 82.6955 28.936C81.4635 28.936 80.7215 29.608 80.6095 30.854L78.9435 30.728C79.0975 28.656 80.5115 27.382 82.6955 27.382C84.6275 27.382 86.0555 28.586 86.0555 30.196C86.0555 31.554 85.2295 32.464 83.2555 33.374C82.4575 33.738 81.9395 33.99 81.6875 34.144C81.4355 34.298 81.2675 34.452 81.1695 34.62C81.0435 34.83 81.0015 35.012 80.9875 35.46ZM91.4348 37V27.2H93.4508L96.3488 34.2H96.3768L99.2888 27.2H101.305V37H99.5828V30.308H99.5548L96.7408 37H95.9988L93.1848 30.308H93.1568V37H91.4348ZM102.907 35.026C102.907 33.78 103.649 33.108 105.553 32.66C106.799 32.338 107.191 32.114 107.191 31.652C107.191 31.134 106.743 30.812 106.001 30.812C105.161 30.812 104.587 31.302 104.433 32.128L102.851 31.792C102.977 31.064 103.313 30.476 103.887 30.042C104.461 29.594 105.175 29.37 106.001 29.37C107.793 29.37 108.913 30.392 108.913 32.058V37H107.387V36.356H107.359C106.981 36.902 106.253 37.21 105.343 37.21C103.873 37.21 102.907 36.356 102.907 35.026ZM107.261 34.494V33.22H107.233C107.079 33.486 106.729 33.682 105.945 33.906C104.923 34.172 104.531 34.452 104.531 34.914C104.531 35.474 104.895 35.754 105.623 35.754C106.589 35.754 107.261 35.236 107.261 34.494ZM110.377 37V29.58H111.959V30.224H111.987C112.309 29.734 112.869 29.44 113.555 29.44C113.891 29.44 114.185 29.482 114.451 29.566L114.157 31.204C113.849 31.12 113.583 31.078 113.359 31.078C112.491 31.078 112.057 31.666 112.057 32.842V37H110.377Z" fill="#344054"/>
<path d="M128 30.5L133 35.5L138 30.5" stroke="#344054" stroke-width="1.67" stroke-linecap="round" stroke-linejoin="round"/>
</g>
<g filter="url(#filter2_d_51_3587)">
<rect x="314" y="15" width="36" height="36" rx="8" fill="white"/>
<rect x="314.5" y="15.5" width="35" height="35" rx="7.5" stroke="#D0D5DD"/>
<path d="M332 33.8334C332.46 33.8334 332.833 33.4603 332.833 33.0001C332.833 32.5398 332.46 32.1667 332 32.1667C331.54 32.1667 331.167 32.5398 331.167 33.0001C331.167 33.4603 331.54 33.8334 332 33.8334Z" stroke="#344054" stroke-width="1.67" stroke-linecap="round" stroke-linejoin="round"/>
<path d="M337.833 33.8334C338.294 33.8334 338.667 33.4603 338.667 33.0001C338.667 32.5398 338.294 32.1667 337.833 32.1667C337.373 32.1667 337 32.5398 337 33.0001C337 33.4603 337.373 33.8334 337.833 33.8334Z" stroke="#344054" stroke-width="1.67" stroke-linecap="round" stroke-linejoin="round"/>
<path d="M326.167 33.8334C326.627 33.8334 327 33.4603 327 33.0001C327 32.5398 326.627 32.1667 326.167 32.1667C325.706 32.1667 325.333 32.5398 325.333 33.0001C325.333 33.4603 325.706 33.8334 326.167 33.8334Z" stroke="#344054" stroke-width="1.67" stroke-linecap="round" stroke-linejoin="round"/>
</g>
<circle cx="185.063" cy="195.152" r="100.998" stroke="#EFEFEF" stroke-width="0.645433"/>
<path d="M185.063 93.8315V296.473" stroke="#EFEFEF" stroke-width="0.791569"/>
<path d="M286.384 195.152L83.7424 195.152" stroke="#EFEFEF" stroke-width="0.791569"/>
<path d="M256.706 266.796L113.417 123.507" stroke="#EFEFEF" stroke-width="0.791569"/>
<path d="M113.411 266.796L256.7 123.507" stroke="#EFEFEF" stroke-width="0.791569"/>
<circle cx="185.061" cy="195.152" r="54.2347" stroke="#EFEFEF" stroke-width="0.645433"/>
<g style="mix-blend-mode:multiply">
<path d="M154.984 128.265L116.988 169.822L143.11 209.005L151.422 260.852L212.768 254.52L250.368 220.482L255.117 167.447L198.52 157.553L154.984 128.265Z" fill="#FFF0E3"/>
<path d="M154.984 128.265L116.988 169.822L143.11 209.005L151.422 260.852L212.768 254.52L250.368 220.482L255.117 167.447L198.52 157.553L154.984 128.265Z" stroke="#FF9843" stroke-width="0.791569" stroke-linecap="round"/>
</g>
<circle cx="154.677" cy="128.354" r="3.65131" fill="#FF9843" stroke="white" stroke-width="1.58314"/>
<circle cx="116.682" cy="169.516" r="3.65131" fill="#FF9843" stroke="white" stroke-width="1.58314"/>
<circle cx="143.595" cy="209.886" r="3.65131" fill="#FF9843" stroke="white" stroke-width="1.58314"/>
<circle cx="152.302" cy="261.338" r="3.65131" fill="#FF9843" stroke="white" stroke-width="1.58314"/>
<circle cx="212.462" cy="254.214" r="3.65131" fill="#FF9843" stroke="white" stroke-width="1.58314"/>
<circle cx="249.665" cy="220.968" r="3.65131" fill="#FF9843" stroke="white" stroke-width="1.58314"/>
<circle cx="255.206" cy="167.141" r="3.65131" fill="#FF9843" stroke="white" stroke-width="1.58314"/>
<circle cx="200.588" cy="158.434" r="3.65131" fill="#FF9843" stroke="white" stroke-width="1.58314"/>
<path d="M99.5158 90.766L100.93 90.486C101.14 92.152 101.966 92.88 103.604 92.88C104.836 92.88 105.62 92.334 105.62 91.494C105.62 90.584 105.032 90.108 103.114 89.492C100.762 88.722 99.9778 87.994 99.9778 86.636C99.9778 85.082 101.294 83.99 103.17 83.99C104.108 83.99 104.906 84.256 105.564 84.774C106.222 85.292 106.614 85.978 106.768 86.846L105.368 87.154C105.06 85.936 104.332 85.32 103.17 85.32C102.092 85.32 101.406 85.838 101.406 86.636C101.406 87.294 101.924 87.686 103.59 88.204C106.124 89.044 107.048 89.898 107.048 91.466C107.048 93.104 105.634 94.21 103.576 94.21C101.21 94.21 99.7818 92.992 99.5158 90.766ZM108.317 94V83.78H109.689V87.238H109.717C110.151 86.72 110.935 86.37 111.719 86.37C113.413 86.37 114.519 87.476 114.519 89.17V94H113.147V89.422C113.147 88.316 112.517 87.644 111.453 87.644C110.389 87.644 109.689 88.358 109.689 89.422V94H108.317ZM115.871 90.29C115.871 87.952 117.299 86.37 119.413 86.37C121.527 86.37 122.955 87.952 122.955 90.29C122.955 92.628 121.527 94.21 119.413 94.21C117.299 94.21 115.871 92.628 115.871 90.29ZM121.583 90.29C121.583 88.666 120.757 87.644 119.413 87.644C118.069 87.644 117.243 88.666 117.243 90.29C117.243 91.914 118.069 92.936 119.413 92.936C120.757 92.936 121.583 91.914 121.583 90.29ZM124.241 91.41V86.58H125.613V91.158C125.613 92.348 126.159 92.936 127.279 92.936C128.301 92.936 128.973 92.236 128.973 91.158V86.58H130.345V94H129.029V93.342H128.987C128.539 93.888 127.727 94.21 126.873 94.21C125.207 94.21 124.241 93.188 124.241 91.41ZM132.051 94V86.58H133.367V87.238H133.395C133.843 86.72 134.669 86.37 135.453 86.37C137.147 86.37 138.253 87.476 138.253 89.212V94H136.881V89.422C136.881 88.316 136.251 87.644 135.187 87.644C134.123 87.644 133.423 88.358 133.423 89.422V94H132.051ZM139.605 90.29C139.605 87.98 141.019 86.37 143.049 86.37C145.065 86.37 146.409 87.896 146.409 90.122V90.696H140.991C141.005 91.354 141.201 91.914 141.579 92.348C141.957 92.782 142.447 92.992 143.049 92.992C143.987 92.992 144.547 92.628 145.163 91.634L146.227 92.348C145.569 93.58 144.477 94.21 143.063 94.21C141.005 94.21 139.605 92.628 139.605 90.29ZM141.019 89.646H145.051C144.995 88.428 144.225 87.588 143.049 87.588C141.929 87.588 141.047 88.526 141.019 89.646ZM147.842 94V86.58H149.158V87.238H149.186C149.634 86.72 150.46 86.37 151.244 86.37C152.938 86.37 154.044 87.476 154.044 89.212V94H152.672V89.422C152.672 88.316 152.042 87.644 150.978 87.644C149.914 87.644 149.214 88.358 149.214 89.422V94H147.842Z" fill="#344054"/>
<path d="M116.647 318.806V309.006H119.797C122.317 309.006 124.039 310.84 124.039 313.892C124.039 317.14 122.415 318.806 119.741 318.806H116.647ZM118.089 317.462H119.685C121.631 317.462 122.597 316.272 122.597 313.892C122.597 311.582 121.533 310.35 119.755 310.35H118.089V317.462ZM125.473 318.806V311.386H126.761V312.002H126.789C127.083 311.54 127.657 311.26 128.343 311.26C128.609 311.26 128.889 311.302 129.169 311.372L128.903 312.744C128.609 312.66 128.357 312.618 128.133 312.618C127.279 312.618 126.845 313.206 126.845 314.494V318.806H125.473ZM129.5 316.874C129.5 315.628 130.228 314.97 132.118 314.522C133.462 314.186 133.882 313.92 133.882 313.374C133.882 312.772 133.364 312.38 132.524 312.38C131.614 312.38 130.984 312.912 130.802 313.85L129.472 313.57C129.598 312.842 129.934 312.268 130.48 311.834C131.04 311.4 131.726 311.176 132.524 311.176C134.246 311.176 135.31 312.142 135.31 313.71V318.806H134.05V318.092H134.022C133.616 318.666 132.846 319.016 131.936 319.016C130.466 319.016 129.5 318.176 129.5 316.874ZM133.952 316.3V314.83H133.924C133.798 315.152 133.364 315.376 132.468 315.614C131.292 315.908 130.844 316.23 130.844 316.79C130.844 317.42 131.278 317.784 132.104 317.784C133.182 317.784 133.952 317.154 133.952 316.3ZM136.943 318.806V311.386H138.259V311.974H138.287C138.679 311.484 139.407 311.176 140.135 311.176C140.919 311.176 141.661 311.54 142.053 312.1H142.081C142.599 311.526 143.313 311.176 144.111 311.176C145.623 311.176 146.757 312.226 146.757 313.71V318.806H145.413V313.934C145.413 313.038 144.839 312.45 143.957 312.45C143.075 312.45 142.501 313.08 142.501 314.018V318.806H141.199V313.934C141.199 313.038 140.611 312.45 139.757 312.45C138.861 312.45 138.287 313.08 138.287 314.018V318.806H136.943ZM148.148 316.874C148.148 315.628 148.876 314.97 150.766 314.522C152.11 314.186 152.53 313.92 152.53 313.374C152.53 312.772 152.012 312.38 151.172 312.38C150.262 312.38 149.632 312.912 149.45 313.85L148.12 313.57C148.246 312.842 148.582 312.268 149.128 311.834C149.688 311.4 150.374 311.176 151.172 311.176C152.894 311.176 153.958 312.142 153.958 313.71V318.806H152.698V318.092H152.67C152.264 318.666 151.494 319.016 150.584 319.016C149.114 319.016 148.148 318.176 148.148 316.874ZM152.6 316.3V314.83H152.572C152.446 315.152 152.012 315.376 151.116 315.614C149.94 315.908 149.492 316.23 149.492 316.79C149.492 317.42 149.926 317.784 150.752 317.784C151.83 317.784 152.6 317.154 152.6 316.3Z" fill="#344054"/>
<path d="M217.068 94V84.2H218.51V88.33H222.528V84.2H223.97V94H222.528V89.604H218.51V94H217.068ZM225.669 90.29C225.669 87.952 227.097 86.37 229.211 86.37C231.325 86.37 232.753 87.952 232.753 90.29C232.753 92.628 231.325 94.21 229.211 94.21C227.097 94.21 225.669 92.628 225.669 90.29ZM231.381 90.29C231.381 88.666 230.555 87.644 229.211 87.644C227.867 87.644 227.041 88.666 227.041 90.29C227.041 91.914 227.867 92.936 229.211 92.936C230.555 92.936 231.381 91.914 231.381 90.29ZM234.179 94V86.58H235.467V87.196H235.495C235.789 86.734 236.363 86.454 237.049 86.454C237.315 86.454 237.595 86.496 237.875 86.566L237.609 87.938C237.315 87.854 237.063 87.812 236.839 87.812C235.985 87.812 235.551 88.4 235.551 89.688V94H234.179ZM238.937 94V86.58H240.225V87.196H240.253C240.547 86.734 241.121 86.454 241.807 86.454C242.073 86.454 242.353 86.496 242.633 86.566L242.367 87.938C242.073 87.854 241.821 87.812 241.597 87.812C240.743 87.812 240.309 88.4 240.309 89.688V94H238.937ZM242.991 90.29C242.991 87.952 244.419 86.37 246.533 86.37C248.647 86.37 250.075 87.952 250.075 90.29C250.075 92.628 248.647 94.21 246.533 94.21C244.419 94.21 242.991 92.628 242.991 90.29ZM248.703 90.29C248.703 88.666 247.877 87.644 246.533 87.644C245.189 87.644 244.363 88.666 244.363 90.29C244.363 91.914 245.189 92.936 246.533 92.936C247.877 92.936 248.703 91.914 248.703 90.29ZM251.501 94V86.58H252.789V87.196H252.817C253.111 86.734 253.685 86.454 254.371 86.454C254.637 86.454 254.917 86.496 255.197 86.566L254.931 87.938C254.637 87.854 254.385 87.812 254.161 87.812C253.307 87.812 252.873 88.4 252.873 89.688V94H251.501Z" fill="#344054"/>
<path d="M216.368 315.572L217.782 315.292C217.992 316.958 218.818 317.686 220.456 317.686C221.688 317.686 222.472 317.14 222.472 316.3C222.472 315.39 221.884 314.914 219.966 314.298C217.614 313.528 216.83 312.8 216.83 311.442C216.83 309.888 218.146 308.796 220.022 308.796C220.96 308.796 221.758 309.062 222.416 309.58C223.074 310.098 223.466 310.784 223.62 311.652L222.22 311.96C221.912 310.742 221.184 310.126 220.022 310.126C218.944 310.126 218.258 310.644 218.258 311.442C218.258 312.1 218.776 312.492 220.442 313.01C222.976 313.85 223.9 314.704 223.9 316.272C223.9 317.91 222.486 319.016 220.428 319.016C218.062 319.016 216.634 317.798 216.368 315.572ZM224.889 315.096C224.889 312.772 226.317 311.176 228.375 311.176C229.229 311.176 229.957 311.428 230.545 311.918C231.147 312.408 231.511 313.066 231.637 313.892L230.321 314.158C230.139 313.08 229.425 312.45 228.375 312.45C227.087 312.45 226.261 313.472 226.261 315.096C226.261 316.72 227.087 317.742 228.375 317.742C229.425 317.742 230.111 317.14 230.321 316.034L231.637 316.3C231.511 317.126 231.147 317.798 230.545 318.288C229.957 318.778 229.229 319.016 228.375 319.016C226.317 319.016 224.889 317.42 224.889 315.096ZM232.99 318.806V308.586H234.362V312.044H234.39C234.824 311.526 235.608 311.176 236.392 311.176C238.086 311.176 239.192 312.282 239.192 313.976V318.806H237.82V314.228C237.82 313.122 237.19 312.45 236.126 312.45C235.062 312.45 234.362 313.164 234.362 314.228V318.806H232.99ZM240.544 315.096C240.544 312.758 241.972 311.176 244.086 311.176C246.2 311.176 247.628 312.758 247.628 315.096C247.628 317.434 246.2 319.016 244.086 319.016C241.972 319.016 240.544 317.434 240.544 315.096ZM246.256 315.096C246.256 313.472 245.43 312.45 244.086 312.45C242.742 312.45 241.916 313.472 241.916 315.096C241.916 316.72 242.742 317.742 244.086 317.742C245.43 317.742 246.256 316.72 246.256 315.096ZM248.774 315.096C248.774 312.758 250.202 311.176 252.316 311.176C254.43 311.176 255.858 312.758 255.858 315.096C255.858 317.434 254.43 319.016 252.316 319.016C250.202 319.016 248.774 317.434 248.774 315.096ZM254.486 315.096C254.486 313.472 253.66 312.45 252.316 312.45C250.972 312.45 250.146 313.472 250.146 315.096C250.146 316.72 250.972 317.742 252.316 317.742C253.66 317.742 254.486 316.72 254.486 315.096ZM257.285 318.806V308.586H258.657V318.806H257.285Z" fill="#344054"/>
<path d="M293.291 165.882C293.291 162.816 294.957 160.772 297.463 160.772C299.479 160.772 301.005 162.144 301.257 164.216L299.843 164.454C299.577 162.928 298.765 162.116 297.463 162.116C295.769 162.116 294.733 163.544 294.733 165.882C294.733 168.234 295.769 169.648 297.463 169.648C298.849 169.648 299.661 168.78 299.843 167.1L301.285 167.31C301.187 168.444 300.795 169.354 300.109 170.012C299.423 170.67 298.541 170.992 297.463 170.992C294.929 170.992 293.291 168.976 293.291 165.882ZM302.287 167.072C302.287 164.734 303.715 163.152 305.829 163.152C307.943 163.152 309.371 164.734 309.371 167.072C309.371 169.41 307.943 170.992 305.829 170.992C303.715 170.992 302.287 169.41 302.287 167.072ZM307.999 167.072C307.999 165.448 307.173 164.426 305.829 164.426C304.485 164.426 303.659 165.448 303.659 167.072C303.659 168.696 304.485 169.718 305.829 169.718C307.173 169.718 307.999 168.696 307.999 167.072ZM310.797 170.782V163.362H312.113V163.95H312.141C312.533 163.46 313.261 163.152 313.989 163.152C314.773 163.152 315.515 163.516 315.907 164.076H315.935C316.453 163.502 317.167 163.152 317.965 163.152C319.477 163.152 320.611 164.202 320.611 165.686V170.782H319.267V165.91C319.267 165.014 318.693 164.426 317.811 164.426C316.929 164.426 316.355 165.056 316.355 165.994V170.782H315.053V165.91C315.053 165.014 314.465 164.426 313.611 164.426C312.715 164.426 312.141 165.056 312.141 165.994V170.782H310.797ZM321.974 167.072C321.974 164.762 323.388 163.152 325.418 163.152C327.434 163.152 328.778 164.678 328.778 166.904V167.478H323.36C323.374 168.136 323.57 168.696 323.948 169.13C324.326 169.564 324.816 169.774 325.418 169.774C326.356 169.774 326.916 169.41 327.532 168.416L328.596 169.13C327.938 170.362 326.846 170.992 325.432 170.992C323.374 170.992 321.974 169.41 321.974 167.072ZM323.388 166.428H327.42C327.364 165.21 326.594 164.37 325.418 164.37C324.298 164.37 323.416 165.308 323.388 166.428ZM329.931 167.072C329.931 164.776 331.331 163.152 333.263 163.152C334.103 163.152 334.859 163.488 335.349 164.034H335.377V160.562H336.749V170.782H335.461V170.068H335.433C334.971 170.642 334.159 170.992 333.249 170.992C331.331 170.992 329.931 169.368 329.931 167.072ZM335.377 167.716V166.414C335.377 165.322 334.495 164.426 333.375 164.426C332.101 164.426 331.303 165.448 331.303 167.072C331.303 168.696 332.129 169.718 333.417 169.718C334.509 169.718 335.377 168.822 335.377 167.716ZM339.015 173.932L340.555 170.222L337.699 163.362H339.141L341.241 168.64H341.269L343.397 163.362H344.839L340.429 173.932H339.015Z" fill="#344054"/>
<path d="M293.851 241.232V231.432H299.871V232.776H295.293V235.926H299.507V237.2H295.293V241.232H293.851ZM300.674 239.3C300.674 238.054 301.402 237.396 303.292 236.948C304.636 236.612 305.056 236.346 305.056 235.8C305.056 235.198 304.538 234.806 303.698 234.806C302.788 234.806 302.158 235.338 301.976 236.276L300.646 235.996C300.772 235.268 301.108 234.694 301.654 234.26C302.214 233.826 302.9 233.602 303.698 233.602C305.42 233.602 306.484 234.568 306.484 236.136V241.232H305.224V240.518H305.196C304.79 241.092 304.02 241.442 303.11 241.442C301.64 241.442 300.674 240.602 300.674 239.3ZM305.126 238.726V237.256H305.098C304.972 237.578 304.538 237.802 303.642 238.04C302.466 238.334 302.018 238.656 302.018 239.216C302.018 239.846 302.452 240.21 303.278 240.21C304.356 240.21 305.126 239.58 305.126 238.726ZM308.117 241.232V233.812H309.433V234.47H309.461C309.909 233.952 310.735 233.602 311.519 233.602C313.213 233.602 314.319 234.708 314.319 236.444V241.232H312.947V236.654C312.947 235.548 312.317 234.876 311.253 234.876C310.189 234.876 309.489 235.59 309.489 236.654V241.232H308.117ZM319.539 235.044H317.719V239.272C317.719 239.762 317.915 239.93 318.517 239.93H319.189V241.232H318.391C316.893 241.232 316.347 240.714 316.347 239.3V235.044H315.185V233.812H316.347V232.076H317.719V233.812H319.539V235.044ZM320.129 239.3C320.129 238.054 320.857 237.396 322.747 236.948C324.091 236.612 324.511 236.346 324.511 235.8C324.511 235.198 323.993 234.806 323.153 234.806C322.243 234.806 321.613 235.338 321.431 236.276L320.101 235.996C320.227 235.268 320.563 234.694 321.109 234.26C321.669 233.826 322.355 233.602 323.153 233.602C324.875 233.602 325.939 234.568 325.939 236.136V241.232H324.679V240.518H324.651C324.245 241.092 323.475 241.442 322.565 241.442C321.095 241.442 320.129 240.602 320.129 239.3ZM324.581 238.726V237.256H324.553C324.427 237.578 323.993 237.802 323.097 238.04C321.921 238.334 321.473 238.656 321.473 239.216C321.473 239.846 321.907 240.21 322.733 240.21C323.811 240.21 324.581 239.58 324.581 238.726ZM327.153 238.74L328.441 238.46C328.679 239.706 329.267 240.224 330.499 240.224C331.409 240.224 331.969 239.874 331.969 239.314C331.969 238.656 331.479 238.376 330.065 237.942C328.273 237.438 327.517 236.892 327.517 235.758C327.517 234.526 328.651 233.602 330.177 233.602C331.675 233.602 332.837 234.456 333.131 235.8L331.843 236.136C331.591 235.254 331.031 234.82 330.177 234.82C329.379 234.82 328.847 235.184 328.847 235.73C328.847 236.192 329.267 236.43 330.513 236.78C332.459 237.354 333.313 237.97 333.313 239.258C333.313 240.588 332.193 241.442 330.499 241.442C328.581 241.442 327.363 240.476 327.153 238.74ZM334.695 244.382L336.235 240.672L333.379 233.812H334.821L336.921 239.09H336.949L339.077 233.812H340.519L336.109 244.382H334.695Z" fill="#344054"/>
<path d="M25.0213 166.057V166.071L27.1353 169.991H25.5113L23.4953 166.169H21.7733V169.991H20.3313V160.191H24.0273C26.0853 160.191 27.3173 161.311 27.3173 163.173C27.3173 164.685 26.4773 165.735 25.0213 166.057ZM21.7733 164.839H23.8873C25.1893 164.839 25.8753 164.251 25.8753 163.173C25.8753 162.081 25.2173 161.535 23.8873 161.535H21.7733V164.839ZM28.0838 166.281C28.0838 163.943 29.5118 162.361 31.6258 162.361C33.7398 162.361 35.1678 163.943 35.1678 166.281C35.1678 168.619 33.7398 170.201 31.6258 170.201C29.5118 170.201 28.0838 168.619 28.0838 166.281ZM33.7958 166.281C33.7958 164.657 32.9698 163.635 31.6258 163.635C30.2818 163.635 29.4558 164.657 29.4558 166.281C29.4558 167.905 30.2818 168.927 31.6258 168.927C32.9698 168.927 33.7958 167.905 33.7958 166.281ZM36.5942 169.991V162.571H37.9102V163.159H37.9382C38.3302 162.669 39.0582 162.361 39.7862 162.361C40.5702 162.361 41.3122 162.725 41.7042 163.285H41.7322C42.2502 162.711 42.9642 162.361 43.7622 162.361C45.2742 162.361 46.4082 163.411 46.4082 164.895V169.991H45.0642V165.119C45.0642 164.223 44.4902 163.635 43.6082 163.635C42.7262 163.635 42.1522 164.265 42.1522 165.203V169.991H40.8502V165.119C40.8502 164.223 40.2622 163.635 39.4082 163.635C38.5122 163.635 37.9382 164.265 37.9382 165.203V169.991H36.5942ZM47.7993 168.059C47.7993 166.813 48.5273 166.155 50.4173 165.707C51.7613 165.371 52.1813 165.105 52.1813 164.559C52.1813 163.957 51.6633 163.565 50.8233 163.565C49.9133 163.565 49.2833 164.097 49.1013 165.035L47.7713 164.755C47.8973 164.027 48.2333 163.453 48.7793 163.019C49.3393 162.585 50.0253 162.361 50.8233 162.361C52.5453 162.361 53.6093 163.327 53.6093 164.895V169.991H52.3493V169.277H52.3213C51.9153 169.851 51.1453 170.201 50.2353 170.201C48.7653 170.201 47.7993 169.361 47.7993 168.059ZM52.2513 167.485V166.015H52.2233C52.0973 166.337 51.6633 166.561 50.7673 166.799C49.5913 167.093 49.1433 167.415 49.1433 167.975C49.1433 168.605 49.5773 168.969 50.4033 168.969C51.4813 168.969 52.2513 168.339 52.2513 167.485ZM55.2427 169.991V162.571H56.5587V163.229H56.5867C57.0347 162.711 57.8607 162.361 58.6447 162.361C60.3387 162.361 61.4447 163.467 61.4447 165.203V169.991H60.0727V165.413C60.0727 164.307 59.4427 163.635 58.3787 163.635C57.3147 163.635 56.6147 164.349 56.6147 165.413V169.991H55.2427ZM62.7967 166.281C62.7967 163.957 64.2247 162.361 66.2827 162.361C67.1367 162.361 67.8647 162.613 68.4527 163.103C69.0547 163.593 69.4187 164.251 69.5447 165.077L68.2287 165.343C68.0467 164.265 67.3327 163.635 66.2827 163.635C64.9947 163.635 64.1687 164.657 64.1687 166.281C64.1687 167.905 64.9947 168.927 66.2827 168.927C67.3327 168.927 68.0187 168.325 68.2287 167.219L69.5447 167.485C69.4187 168.311 69.0547 168.983 68.4527 169.473C67.8647 169.963 67.1367 170.201 66.2827 170.201C64.2247 170.201 62.7967 168.605 62.7967 166.281ZM70.617 166.281C70.617 163.971 72.031 162.361 74.061 162.361C76.077 162.361 77.421 163.887 77.421 166.113V166.687H72.003C72.017 167.345 72.213 167.905 72.591 168.339C72.969 168.773 73.459 168.983 74.061 168.983C74.999 168.983 75.559 168.619 76.175 167.625L77.239 168.339C76.581 169.571 75.489 170.201 74.075 170.201C72.017 170.201 70.617 168.619 70.617 166.281ZM72.031 165.637H76.063C76.007 164.419 75.237 163.579 74.061 163.579C72.941 163.579 72.059 164.517 72.031 165.637Z" fill="#344054"/>
<path d="M45.1181 240.44L44.4741 238.606H40.2881L39.6441 240.44H38.1881L41.7161 230.64H43.0601L46.5741 240.44H45.1181ZM40.7221 237.346H44.0401L42.4021 232.628H42.3741L40.7221 237.346ZM46.8962 236.73C46.8962 234.406 48.3242 232.81 50.3822 232.81C51.2362 232.81 51.9642 233.062 52.5522 233.552C53.1542 234.042 53.5182 234.7 53.6442 235.526L52.3282 235.792C52.1462 234.714 51.4322 234.084 50.3822 234.084C49.0942 234.084 48.2682 235.106 48.2682 236.73C48.2682 238.354 49.0942 239.376 50.3822 239.376C51.4322 239.376 52.1182 238.774 52.3282 237.668L53.6442 237.934C53.5182 238.76 53.1542 239.432 52.5522 239.922C51.9642 240.412 51.2362 240.65 50.3822 240.65C48.3242 240.65 46.8962 239.054 46.8962 236.73ZM58.5838 234.252H56.7638V238.48C56.7638 238.97 56.9598 239.138 57.5618 239.138H58.2338V240.44H57.4358C55.9378 240.44 55.3918 239.922 55.3918 238.508V234.252H54.2298V233.02H55.3918V231.284H56.7638V233.02H58.5838V234.252ZM59.809 240.44V233.02H61.181V240.44H59.809ZM59.739 231.732V230.29H61.237V231.732H59.739ZM62.5915 236.73C62.5915 234.392 64.0195 232.81 66.1335 232.81C68.2475 232.81 69.6755 234.392 69.6755 236.73C69.6755 239.068 68.2475 240.65 66.1335 240.65C64.0195 240.65 62.5915 239.068 62.5915 236.73ZM68.3035 236.73C68.3035 235.106 67.4775 234.084 66.1335 234.084C64.7895 234.084 63.9635 235.106 63.9635 236.73C63.9635 238.354 64.7895 239.376 66.1335 239.376C67.4775 239.376 68.3035 238.354 68.3035 236.73ZM71.102 240.44V233.02H72.418V233.678H72.446C72.894 233.16 73.72 232.81 74.504 232.81C76.198 232.81 77.304 233.916 77.304 235.652V240.44H75.932V235.862C75.932 234.756 75.302 234.084 74.238 234.084C73.174 234.084 72.474 234.798 72.474 235.862V240.44H71.102Z" fill="#344054"/>
</g>
<defs>
<filter id="filter0_dd_51_3587" x="0" y="0" width="365" height="365" filterUnits="userSpaceOnUse" color-interpolation-filters="sRGB">
<feFlood flood-opacity="0" result="BackgroundImageFix"/>
<feColorMatrix in="SourceAlpha" type="matrix" values="0 0 0 0 0 0 0 0 0 0 0 0 0 0 0 0 0 0 127 0" result="hardAlpha"/>
<feOffset dy="1"/>
<feGaussianBlur stdDeviation="1"/>
<feColorMatrix type="matrix" values="0 0 0 0 0.0627451 0 0 0 0 0.0941176 0 0 0 0 0.156863 0 0 0 0.06 0"/>
<feBlend mode="normal" in2="BackgroundImageFix" result="effect1_dropShadow_51_3587"/>
<feColorMatrix in="SourceAlpha" type="matrix" values="0 0 0 0 0 0 0 0 0 0 0 0 0 0 0 0 0 0 127 0" result="hardAlpha"/>
<feOffset dy="1"/>
<feGaussianBlur stdDeviation="1.5"/>
<feColorMatrix type="matrix" values="0 0 0 0 0.0627451 0 0 0 0 0.0941176 0 0 0 0 0.156863 0 0 0 0.1 0"/>
<feBlend mode="normal" in2="effect1_dropShadow_51_3587" result="effect2_dropShadow_51_3587"/>
<feBlend mode="normal" in="SourceGraphic" in2="effect2_dropShadow_51_3587" result="shape"/>
</filter>
<filter id="filter1_d_51_3587" x="13" y="13" width="138" height="42" filterUnits="userSpaceOnUse" color-interpolation-filters="sRGB">
<feFlood flood-opacity="0" result="BackgroundImageFix"/>
<feColorMatrix in="SourceAlpha" type="matrix" values="0 0 0 0 0 0 0 0 0 0 0 0 0 0 0 0 0 0 127 0" result="hardAlpha"/>
<feOffset dy="1"/>
<feGaussianBlur stdDeviation="1"/>
<feColorMatrix type="matrix" values="0 0 0 0 0.0627451 0 0 0 0 0.0941176 0 0 0 0 0.156863 0 0 0 0.05 0"/>
<feBlend mode="normal" in2="BackgroundImageFix" result="effect1_dropShadow_51_3587"/>
<feBlend mode="normal" in="SourceGraphic" in2="effect1_dropShadow_51_3587" result="shape"/>
</filter>
<filter id="filter2_d_51_3587" x="312" y="14" width="40" height="40" filterUnits="userSpaceOnUse" color-interpolation-filters="sRGB">
<feFlood flood-opacity="0" result="BackgroundImageFix"/>
<feColorMatrix in="SourceAlpha" type="matrix" values="0 0 0 0 0 0 0 0 0 0 0 0 0 0 0 0 0 0 127 0" result="hardAlpha"/>
<feOffset dy="1"/>
<feGaussianBlur stdDeviation="1"/>
<feColorMatrix type="matrix" values="0 0 0 0 0.0627451 0 0 0 0 0.0941176 0 0 0 0 0.156863 0 0 0 0.05 0"/>
<feBlend mode="normal" in2="BackgroundImageFix" result="effect1_dropShadow_51_3587"/>
<feBlend mode="normal" in="SourceGraphic" in2="effect1_dropShadow_51_3587" result="shape"/>
</filter>
</defs>
</svg>
