<svg width="359" height="318" viewBox="0 0 359 318" fill="none" xmlns="http://www.w3.org/2000/svg">
<g clip-path="url(#clip0_89_731)">
<rect width="359" height="318" rx="16" fill="url(#paint0_linear_89_731)"/>
<rect x="16" y="22" width="40" height="40" rx="8" fill="white"/>
<path d="M44.3333 42H41L38.5 49.5L33.5 34.5L31 42H27.6666" stroke="#344054" stroke-width="1.66667" stroke-linecap="round" stroke-linejoin="round"/>
<g filter="url(#filter0_d_89_731)">
<path d="M65.134 31V21.2H66.73L70.818 28.648H70.846V21.2H72.288V31H70.692L66.604 23.552H66.576V31H65.134ZM73.9939 27.29C73.9939 24.98 75.4079 23.37 77.4379 23.37C79.4539 23.37 80.7979 24.896 80.7979 27.122V27.696H75.3799C75.3939 28.354 75.5899 28.914 75.9679 29.348C76.3459 29.782 76.8359 29.992 77.4379 29.992C78.3759 29.992 78.9359 29.628 79.5519 28.634L80.6159 29.348C79.9579 30.58 78.8659 31.21 77.4519 31.21C75.3939 31.21 73.9939 29.628 73.9939 27.29ZM75.4079 26.646H79.4399C79.3839 25.428 78.6139 24.588 77.4379 24.588C76.3179 24.588 75.4359 25.526 75.4079 26.646ZM83.1615 31L81.4115 23.58H82.7695L83.9875 29.026H84.0155L85.8775 23.58H87.0955L88.9575 29.026H88.9855L90.2035 23.58H91.5615L89.8115 31H88.4815L86.4935 25.232H86.4655L84.4915 31H83.1615ZM102.54 31L101.896 29.166H97.71L97.066 31H95.61L99.138 21.2H100.482L103.996 31H102.54ZM98.144 27.906H101.462L99.824 23.188H99.796L98.144 27.906ZM104.318 27.29C104.318 24.966 105.746 23.37 107.804 23.37C108.658 23.37 109.386 23.622 109.974 24.112C110.576 24.602 110.94 25.26 111.066 26.086L109.75 26.352C109.568 25.274 108.854 24.644 107.804 24.644C106.516 24.644 105.69 25.666 105.69 27.29C105.69 28.914 106.516 29.936 107.804 29.936C108.854 29.936 109.54 29.334 109.75 28.228L111.066 28.494C110.94 29.32 110.576 29.992 109.974 30.482C109.386 30.972 108.658 31.21 107.804 31.21C105.746 31.21 104.318 29.614 104.318 27.29ZM116.006 24.812H114.186V29.04C114.186 29.53 114.382 29.698 114.984 29.698H115.656V31H114.858C113.36 31 112.814 30.482 112.814 29.068V24.812H111.652V23.58H112.814V21.844H114.186V23.58H116.006V24.812ZM117.231 31V23.58H118.603V31H117.231ZM117.161 22.292V20.85H118.659V22.292H117.161ZM122.659 31L119.537 23.58H121.007L123.261 29.152H123.289L125.543 23.58H127.013L123.891 31H122.659ZM127.963 31V23.58H129.335V31H127.963ZM127.893 22.292V20.85H129.391V22.292H127.893ZM134.75 24.812H132.93V29.04C132.93 29.53 133.126 29.698 133.728 29.698H134.4V31H133.602C132.104 31 131.558 30.482 131.558 29.068V24.812H130.396V23.58H131.558V21.844H132.93V23.58H134.75V24.812ZM136.535 34.15L138.075 30.44L135.219 23.58H136.661L138.761 28.858H138.789L140.917 23.58H142.359L137.949 34.15H136.535ZM146.482 26.1C146.482 23.006 148.12 20.99 150.654 20.99C152.628 20.99 154.14 22.292 154.42 24.266L153.006 24.504C152.74 23.104 151.9 22.334 150.654 22.334C148.96 22.334 147.924 23.762 147.924 26.1C147.924 28.438 148.96 29.866 150.654 29.866C152.166 29.866 153.076 28.9 153.034 27.332H150.78V26.044H154.434V27.15C154.434 29.586 152.922 31.21 150.654 31.21C148.12 31.21 146.482 29.194 146.482 26.1ZM155.588 27.29C155.588 24.98 157.002 23.37 159.032 23.37C161.048 23.37 162.392 24.896 162.392 27.122V27.696H156.974C156.988 28.354 157.184 28.914 157.562 29.348C157.94 29.782 158.43 29.992 159.032 29.992C159.97 29.992 160.53 29.628 161.146 28.634L162.21 29.348C161.552 30.58 160.46 31.21 159.046 31.21C156.988 31.21 155.588 29.628 155.588 27.29ZM157.002 26.646H161.034C160.978 25.428 160.208 24.588 159.032 24.588C157.912 24.588 157.03 25.526 157.002 26.646ZM163.825 31V23.58H165.141V24.238H165.169C165.617 23.72 166.443 23.37 167.227 23.37C168.921 23.37 170.027 24.476 170.027 26.212V31H168.655V26.422C168.655 25.316 168.025 24.644 166.961 24.644C165.897 24.644 165.197 25.358 165.197 26.422V31H163.825ZM171.659 31V23.58H172.947V24.196H172.975C173.269 23.734 173.843 23.454 174.529 23.454C174.795 23.454 175.075 23.496 175.355 23.566L175.089 24.938C174.795 24.854 174.543 24.812 174.319 24.812C173.465 24.812 173.031 25.4 173.031 26.688V31H171.659ZM175.713 27.29C175.713 24.98 177.127 23.37 179.157 23.37C181.173 23.37 182.517 24.896 182.517 27.122V27.696H177.099C177.113 28.354 177.309 28.914 177.687 29.348C178.065 29.782 178.555 29.992 179.157 29.992C180.095 29.992 180.655 29.628 181.271 28.634L182.335 29.348C181.677 30.58 180.585 31.21 179.171 31.21C177.113 31.21 175.713 29.628 175.713 27.29ZM177.127 26.646H181.159C181.103 25.428 180.333 24.588 179.157 24.588C178.037 24.588 177.155 25.526 177.127 26.646Z" fill="#F2F4F7"/>
</g>
<g filter="url(#filter1_d_89_731)">
<path d="M65.5 59V45H70.16C73.86 45 76.26 47.66 76.26 52C76.26 56.48 73.88 59 70.12 59H65.5ZM68 56.7H70.1C72.42 56.7 73.76 55.14 73.76 52C73.76 48.96 72.4 47.3 70.14 47.3H68V56.7ZM77.6688 53.7C77.6688 50.4 79.7288 48.1 82.6088 48.1C85.5488 48.1 87.5088 50.34 87.5088 53.58V54.4H80.0888C80.1688 56.1 81.1488 57.22 82.6488 57.22C83.8288 57.22 84.6288 56.7 85.4288 55.48L87.1888 56.76C86.2288 58.44 84.6688 59.3 82.6488 59.3C79.7088 59.3 77.6688 57.04 77.6688 53.7ZM80.1088 52.64H85.1288C85.0488 51.14 84.1288 50.18 82.6288 50.18C81.2488 50.18 80.1888 51.22 80.1088 52.64ZM89.2992 59V48.4H91.5592V49.3H91.5992C92.1792 48.56 93.1992 48.1 94.2992 48.1C95.3992 48.1 96.4592 48.62 97.0392 49.42H97.0792C97.8192 48.54 98.7592 48.1 99.9392 48.1C102.199 48.1 103.799 49.72 103.799 51.86V59H101.459V52.28C101.459 51.06 100.719 50.3 99.5792 50.3C98.4392 50.3 97.6792 51.12 97.6792 52.38V59H95.4192V52.28C95.4192 51.06 94.6792 50.3 93.5392 50.3C92.3992 50.3 91.6392 51.12 91.6392 52.38V59H89.2992ZM105.501 53.7C105.501 50.36 107.601 48.1 110.641 48.1C113.701 48.1 115.801 50.36 115.801 53.7C115.801 57.04 113.701 59.3 110.641 59.3C107.601 59.3 105.501 57.04 105.501 53.7ZM113.401 53.7C113.401 51.6 112.381 50.3 110.641 50.3C108.941 50.3 107.901 51.56 107.901 53.7C107.901 55.84 108.941 57.1 110.641 57.1C112.381 57.1 113.401 55.8 113.401 53.7ZM117.6 59V48.4H119.9V49.34H119.94C120.56 48.6 121.72 48.1 122.86 48.1C125.26 48.1 126.82 49.72 126.82 52.2V59H124.42V52.58C124.42 51.16 123.62 50.34 122.24 50.34C120.86 50.34 120 51.22 120 52.58V59H117.6ZM133.023 60.4H153.023V40.4H133.023V60.4Z" fill="white"/>
</g>
<g filter="url(#filter2_dd_89_731)">
<rect x="5" y="84" width="350" height="230" rx="16" fill="white"/>
<path d="M57 181V273" stroke="#D0D5DD"/>
<path d="M139 181V273" stroke="#D0D5DD"/>
<path d="M221 181V273" stroke="#D0D5DD"/>
<path d="M302 181V273" stroke="#D0D5DD"/>
<path d="M43.229 287.389C43.229 284.797 44.585 283.189 46.601 283.189C48.605 283.189 49.985 284.797 49.985 287.389C49.985 289.969 48.605 291.589 46.601 291.589C44.609 291.589 43.229 289.981 43.229 287.389ZM48.797 287.389C48.797 285.421 47.957 284.281 46.601 284.281C45.245 284.281 44.405 285.421 44.405 287.389C44.405 289.357 45.245 290.497 46.601 290.497C47.957 290.497 48.797 289.357 48.797 287.389ZM52.6465 291.421V284.677L50.7265 285.853V284.605L52.7545 283.357H53.8225V291.421H52.6465ZM55.1604 288.421V287.317H58.3644V288.421H55.1604ZM59.6235 287.389C59.6235 284.797 60.9795 283.189 62.9955 283.189C64.9995 283.189 66.3795 284.797 66.3795 287.389C66.3795 289.969 64.9995 291.589 62.9955 291.589C61.0035 291.589 59.6235 289.981 59.6235 287.389ZM65.1915 287.389C65.1915 285.421 64.3515 284.281 62.9955 284.281C61.6395 284.281 60.7995 285.421 60.7995 287.389C60.7995 289.357 61.6395 290.497 62.9955 290.497C64.3515 290.497 65.1915 289.357 65.1915 287.389ZM67.5489 291.421L70.8849 284.461V284.449H66.5769V283.357H72.2049V284.377L68.8809 291.421H67.5489Z" fill="#667085"/>
<path d="M124.404 287.389C124.404 284.797 125.76 283.189 127.776 283.189C129.78 283.189 131.16 284.797 131.16 287.389C131.16 289.969 129.78 291.589 127.776 291.589C125.784 291.589 124.404 289.981 124.404 287.389ZM129.972 287.389C129.972 285.421 129.132 284.281 127.776 284.281C126.42 284.281 125.58 285.421 125.58 287.389C125.58 289.357 126.42 290.497 127.776 290.497C129.132 290.497 129.972 289.357 129.972 287.389ZM131.816 289.165C131.816 288.169 132.404 287.401 133.364 287.017V286.993C132.632 286.609 132.272 286.057 132.272 285.349C132.272 284.101 133.412 283.189 135.008 283.189C136.592 283.189 137.732 284.101 137.732 285.349C137.732 286.069 137.372 286.621 136.652 286.993V287.017C137.612 287.401 138.2 288.169 138.2 289.165C138.2 290.605 136.916 291.601 135.008 291.601C133.1 291.601 131.816 290.605 131.816 289.165ZM136.568 285.409C136.568 284.701 135.932 284.221 135.008 284.221C134.084 284.221 133.46 284.701 133.46 285.409C133.46 286.117 134.084 286.573 135.008 286.573C135.932 286.573 136.568 286.117 136.568 285.409ZM136.952 289.057C136.952 288.193 136.196 287.617 135.008 287.617C133.82 287.617 133.064 288.193 133.064 289.057C133.064 289.933 133.808 290.473 135.008 290.473C136.208 290.473 136.952 289.933 136.952 289.057ZM139.265 288.421V287.317H142.469V288.421H139.265ZM145.341 291.421V284.677L143.421 285.853V284.605L145.449 283.357H146.517V291.421H145.341ZM151.938 291.421V289.861H147.762V288.769L151.302 283.357H153.114V288.769H154.182V289.861H153.114V291.421H151.938ZM148.95 288.769H151.938V284.245H151.914L148.95 288.769Z" fill="#667085"/>
<path d="M208 291.421V284.677L206.08 285.853V284.605L208.108 283.357H209.176V291.421H208ZM210.757 289.297L211.885 288.973C212.137 289.993 212.773 290.497 213.913 290.497C215.053 290.497 215.833 289.789 215.833 288.721C215.833 287.701 215.065 286.969 213.913 286.969C213.193 286.969 212.557 287.233 212.005 287.773L210.937 287.485L211.729 283.357H216.253V284.449H212.641L212.233 286.477L212.257 286.501C212.749 286.153 213.361 285.973 214.093 285.973C215.785 285.973 217.009 287.137 217.009 288.733C217.009 290.425 215.749 291.589 213.913 291.589C212.245 291.589 211.105 290.749 210.757 289.297ZM217.955 288.421V287.317H221.159V288.421H217.955ZM223.779 290.329H228.183V291.421H222.483V290.533C222.483 289.849 222.615 289.321 222.867 288.925C223.203 288.409 223.767 288.037 224.979 287.461C226.635 286.681 227.127 286.249 227.127 285.493C227.127 284.773 226.467 284.281 225.495 284.281C224.331 284.281 223.611 284.929 223.515 286.093L222.351 286.009C222.411 285.133 222.711 284.449 223.275 283.945C223.839 283.441 224.583 283.189 225.495 283.189C227.091 283.189 228.303 284.185 228.303 285.493C228.303 286.081 228.123 286.585 227.751 287.005C227.379 287.413 226.755 287.821 225.855 288.241C225.171 288.565 224.703 288.805 224.451 288.961C224.211 289.117 224.043 289.273 223.947 289.453C223.839 289.645 223.791 289.861 223.779 290.329ZM230.74 290.329H235.144V291.421H229.444V290.533C229.444 289.849 229.576 289.321 229.828 288.925C230.164 288.409 230.728 288.037 231.94 287.461C233.596 286.681 234.088 286.249 234.088 285.493C234.088 284.773 233.428 284.281 232.456 284.281C231.292 284.281 230.572 284.929 230.476 286.093L229.312 286.009C229.372 285.133 229.672 284.449 230.236 283.945C230.8 283.441 231.544 283.189 232.456 283.189C234.052 283.189 235.264 284.185 235.264 285.493C235.264 286.081 235.084 286.585 234.712 287.005C234.34 287.413 233.716 287.821 232.816 288.241C232.132 288.565 231.664 288.805 231.412 288.961C231.172 289.117 231.004 289.273 230.908 289.453C230.8 289.645 230.752 289.861 230.74 290.329Z" fill="#667085"/>
<path d="M287.762 290.329H292.166V291.421H286.466V290.533C286.466 289.849 286.598 289.321 286.85 288.925C287.186 288.409 287.75 288.037 288.962 287.461C290.618 286.681 291.11 286.249 291.11 285.493C291.11 284.773 290.45 284.281 289.478 284.281C288.314 284.281 287.594 284.929 287.498 286.093L286.334 286.009C286.394 285.133 286.694 284.449 287.258 283.945C287.822 283.441 288.566 283.189 289.478 283.189C291.074 283.189 292.286 284.185 292.286 285.493C292.286 286.081 292.106 286.585 291.734 287.005C291.362 287.413 290.738 287.821 289.838 288.241C289.154 288.565 288.686 288.805 288.434 288.961C288.194 289.117 288.026 289.273 287.93 289.453C287.822 289.645 287.774 289.861 287.762 290.329ZM293.175 288.745L294.327 288.541C294.507 289.873 295.155 290.497 296.367 290.497C297.375 290.497 298.023 289.945 298.023 289.093C298.023 288.133 297.423 287.653 296.223 287.653H295.551V286.669H296.187C297.111 286.669 297.807 286.165 297.807 285.493C297.807 284.737 297.243 284.269 296.319 284.269C295.347 284.269 294.663 284.797 294.519 285.673L293.367 285.481C293.571 284.077 294.723 283.189 296.319 283.189C297.891 283.189 298.983 284.077 298.983 285.373C298.983 286.081 298.551 286.705 297.879 287.029V287.053C298.695 287.377 299.199 288.157 299.199 289.129C299.199 290.569 298.059 291.589 296.367 291.589C294.543 291.589 293.379 290.557 293.175 288.745ZM300.384 288.421V287.317H303.588V288.421H300.384ZM304.659 288.745L305.811 288.541C305.991 289.873 306.639 290.497 307.851 290.497C308.859 290.497 309.507 289.945 309.507 289.093C309.507 288.133 308.907 287.653 307.707 287.653H307.035V286.669H307.671C308.595 286.669 309.291 286.165 309.291 285.493C309.291 284.737 308.727 284.269 307.803 284.269C306.831 284.269 306.147 284.797 306.003 285.673L304.851 285.481C305.055 284.077 306.207 283.189 307.803 283.189C309.375 283.189 310.467 284.077 310.467 285.373C310.467 286.081 310.035 286.705 309.363 287.029V287.053C310.179 287.377 310.683 288.157 310.683 289.129C310.683 290.569 309.543 291.589 307.851 291.589C306.027 291.589 304.863 290.557 304.659 288.745ZM311.796 287.389C311.796 284.797 313.152 283.189 315.168 283.189C317.172 283.189 318.552 284.797 318.552 287.389C318.552 289.969 317.172 291.589 315.168 291.589C313.176 291.589 311.796 289.981 311.796 287.389ZM317.364 287.389C317.364 285.421 316.524 284.281 315.168 284.281C313.812 284.281 312.972 285.421 312.972 287.389C312.972 289.357 313.812 290.497 315.168 290.497C316.524 290.497 317.364 289.357 317.364 287.389Z" fill="#667085"/>
<line x1="20" y1="271.5" x2="341" y2="271.5" stroke="#D0D5DD"/>
<path d="M57.5 268.21C57.5 267.934 57.2761 267.71 57 267.71C56.7239 267.71 56.5 267.934 56.5 268.21L57.5 268.21ZM56.5 268.21L56.5 272.158L57.5 272.158L57.5 268.21L56.5 268.21Z" fill="#101828"/>
<path d="M139.5 268.21C139.5 267.934 139.276 267.71 139 267.71C138.724 267.71 138.5 267.934 138.5 268.21L139.5 268.21ZM138.5 268.21L138.5 272.158L139.5 272.158L139.5 268.21L138.5 268.21Z" fill="#101828"/>
<path d="M221.5 268.21C221.5 267.934 221.276 267.71 221 267.71C220.724 267.71 220.5 267.934 220.5 268.21L221.5 268.21ZM220.5 268.21L220.5 272.158L221.5 272.158L221.5 268.21L220.5 268.21Z" fill="#101828"/>
<path d="M302.5 268.21C302.5 267.934 302.276 267.71 302 267.71C301.724 267.71 301.5 267.934 301.5 268.21L302.5 268.21ZM301.5 268.21L301.5 272.158L302.5 272.158L302.5 268.21L301.5 268.21Z" fill="#101828"/>
<path d="M330 185L302.717 192.875H221.047L139.602 217.484L58.1579 232.25L22 248" stroke="#FF9843" stroke-width="1.31579"/>
<path d="M63.3684 233.421C63.3684 236.183 61.1298 238.421 58.3684 238.421C55.607 238.421 53.3684 236.183 53.3684 233.421C53.3684 230.66 55.607 228.421 58.3684 228.421C61.1298 228.421 63.3684 230.66 63.3684 233.421Z" fill="#FF9843" stroke="white" stroke-width="2"/>
<path d="M144.947 218.29C144.947 221.051 142.709 223.29 139.947 223.29C137.186 223.29 134.947 221.051 134.947 218.29C134.947 215.528 137.186 213.29 139.947 213.29C142.709 213.29 144.947 215.528 144.947 218.29Z" fill="#FF9843" stroke="white" stroke-width="2"/>
<path d="M226.526 193.947C226.526 196.709 224.288 198.947 221.526 198.947C218.765 198.947 216.526 196.709 216.526 193.947C216.526 191.186 218.765 188.947 221.526 188.947C224.288 188.947 226.526 191.186 226.526 193.947Z" fill="#FF9843" stroke="white" stroke-width="2"/>
<path d="M308.105 192.632C308.105 195.393 305.867 197.632 303.105 197.632C300.344 197.632 298.105 195.393 298.105 192.632C298.105 189.87 300.344 187.632 303.105 187.632C305.867 187.632 308.105 189.87 308.105 192.632Z" fill="#FF9843" stroke="white" stroke-width="2"/>
<path d="M323 240L301.638 244.333L220.133 243.667L138.122 244.333L56.4659 262H19" stroke="#D0D5DD" stroke-width="1.31579"/>
<path d="M62.8948 262C62.8948 264.761 60.6562 267 57.8948 267C55.1334 267 52.8948 264.761 52.8948 262C52.8948 259.239 55.1334 257 57.8948 257C60.6562 257 62.8948 259.239 62.8948 262Z" fill="#98A2B3" stroke="white" stroke-width="2"/>
<path d="M145 245C145 247.761 142.761 250 140 250C137.239 250 135 247.761 135 245C135 242.239 137.239 240 140 240C142.761 240 145 242.239 145 245Z" fill="#98A2B3" stroke="white" stroke-width="2"/>
<path d="M226.526 245C226.526 247.761 224.288 250 221.526 250C218.765 250 216.526 247.761 216.526 245C216.526 242.239 218.765 240 221.526 240C224.288 240 226.526 242.239 226.526 245Z" fill="#98A2B3" stroke="white" stroke-width="2"/>
<path d="M308.105 245C308.105 247.761 305.867 250 303.105 250C300.344 250 298.105 247.761 298.105 245C298.105 242.239 300.344 240 303.105 240C305.867 240 308.105 242.239 308.105 245Z" fill="#98A2B3" stroke="white" stroke-width="2"/>
<path d="M32.708 111.752C32.708 119.06 30.384 122.42 25.26 122.42C21.872 122.42 19.436 120.6 18.54 117.604L21.732 116.624C22.32 118.5 23.468 119.312 25.26 119.312C27.724 119.312 28.984 117.66 29.18 114.048H29.152C28.06 115.14 26.52 115.7 24.588 115.7C20.472 115.7 17.7 113.124 17.7 109.288C17.7 105.508 20.724 102.764 24.896 102.764C27.332 102.764 29.236 103.548 30.608 105.144C32.008 106.712 32.708 108.924 32.708 111.752ZM25.008 112.76C27.332 112.76 28.844 111.416 28.844 109.316C28.844 107.272 27.276 105.872 25.008 105.872C22.628 105.872 21.116 107.188 21.116 109.288C21.116 111.444 22.572 112.76 25.008 112.76ZM33.2617 116.652C33.2617 114.412 34.6617 112.592 36.7897 111.724V111.668C35.1377 110.8 34.3257 109.568 34.3257 107.916C34.3257 104.976 37.0697 102.764 40.9897 102.764C44.8817 102.764 47.6257 104.976 47.6257 107.916C47.6257 109.54 46.8137 110.8 45.1897 111.668V111.724C47.3177 112.592 48.6897 114.412 48.6897 116.652C48.6897 120.012 45.5537 122.42 40.9897 122.42C36.3697 122.42 33.2617 120.012 33.2617 116.652ZM44.2657 108.112C44.2657 106.684 42.9217 105.676 40.9897 105.676C39.0577 105.676 37.7137 106.684 37.7137 108.112C37.7137 109.568 39.0017 110.52 40.9897 110.52C42.9777 110.52 44.2657 109.568 44.2657 108.112ZM45.0497 116.288C45.0497 114.524 43.4817 113.348 40.9897 113.348C38.4977 113.348 36.9017 114.524 36.9017 116.288C36.9017 118.108 38.4137 119.172 40.9897 119.172C43.5377 119.172 45.0497 118.108 45.0497 116.288ZM56.8847 122V102.4H60.3847V110.352H67.5807V102.4H71.0807V122H67.5807V113.544H60.3847V122H56.8847ZM73.327 114.58C73.327 109.904 76.267 106.74 80.523 106.74C84.807 106.74 87.747 109.904 87.747 114.58C87.747 119.256 84.807 122.42 80.523 122.42C76.267 122.42 73.327 119.256 73.327 114.58ZM84.387 114.58C84.387 111.64 82.959 109.82 80.523 109.82C78.143 109.82 76.687 111.584 76.687 114.58C76.687 117.576 78.143 119.34 80.523 119.34C82.959 119.34 84.387 117.52 84.387 114.58ZM89.1459 116.876V107.16H92.5059V116.176C92.5059 118.276 93.4859 119.34 95.4739 119.34C97.2939 119.34 98.4979 118.08 98.4979 116.176V107.16H101.858V122H98.6099V120.684H98.5539C97.6859 121.776 96.1179 122.42 94.4659 122.42C91.1059 122.42 89.1459 120.376 89.1459 116.876ZM104.09 122V107.16H107.254V108.448H107.31C107.954 107.468 109.074 106.88 110.446 106.88C111.118 106.88 111.706 106.964 112.238 107.132L111.65 110.408C111.034 110.24 110.502 110.156 110.054 110.156C108.318 110.156 107.45 111.332 107.45 113.684V122H104.09ZM111.461 117.128L114.513 116.344C114.989 118.584 116.109 119.564 118.265 119.564C119.861 119.564 120.869 118.976 120.869 118.052C120.869 116.904 119.833 116.344 117.341 115.588C114.093 114.664 112.329 113.796 112.217 111.136C112.217 108.644 114.569 106.74 117.677 106.74C119.161 106.74 120.477 107.132 121.597 107.944C122.717 108.756 123.445 109.792 123.781 111.108L120.701 111.976C120.225 110.408 119.133 109.596 117.677 109.596C116.305 109.596 115.409 110.184 115.409 111.08C115.409 111.864 116.277 112.284 118.377 112.872C121.849 113.852 123.977 114.916 124.061 117.912C124.061 120.628 121.765 122.42 118.265 122.42C114.485 122.42 112.021 120.516 111.461 117.128Z" fill="#101828"/>
<rect x="17.3289" y="137.066" width="41.8684" height="17.8684" rx="8.93421" fill="#E8FFF4"/>
<rect x="17.3289" y="137.066" width="41.8684" height="17.8684" rx="8.93421" stroke="#ECFDF3" stroke-width="0.657895"/>
<path d="M26.703 144.171V149.509H25.8258V144.171L23.4732 146.523L22.8529 145.903L26.2644 142.491L29.6759 145.903L29.0556 146.523L26.703 144.171Z" fill="#12B76A"/>
<path d="M33.4464 149V143.38L31.8464 144.36V143.32L33.5364 142.28H34.4264V149H33.4464ZM37.0987 149V143.38L35.4987 144.36V143.32L37.1887 142.28H38.0787V149H37.0987ZM40.5411 148.09H44.2111V149H39.4611V148.26C39.4611 147.69 39.5711 147.25 39.7811 146.92C40.0611 146.49 40.5311 146.18 41.5411 145.7C42.9211 145.05 43.3311 144.69 43.3311 144.06C43.3311 143.46 42.7811 143.05 41.9711 143.05C41.0011 143.05 40.4011 143.59 40.3211 144.56L39.3511 144.49C39.4011 143.76 39.6511 143.19 40.1211 142.77C40.5911 142.35 41.2111 142.14 41.9711 142.14C43.3011 142.14 44.3111 142.97 44.3111 144.06C44.3111 144.55 44.1611 144.97 43.8511 145.32C43.5411 145.66 43.0211 146 42.2711 146.35C41.7011 146.62 41.3111 146.82 41.1011 146.95C40.9011 147.08 40.7611 147.21 40.6811 147.36C40.5911 147.52 40.5511 147.7 40.5411 148.09ZM47.8971 149.77L47.1371 149.34L52.0471 141.21L52.7971 141.67L47.8971 149.77ZM45.3971 144.1C45.3971 142.75 46.0771 141.91 47.1871 141.91C48.2771 141.91 48.9771 142.75 48.9771 144.1C48.9771 145.45 48.2771 146.29 47.1871 146.29C46.0771 146.29 45.3971 145.45 45.3971 144.1ZM48.0971 144.1C48.0971 143.21 47.7871 142.71 47.1871 142.71C46.5971 142.71 46.2771 143.21 46.2771 144.1C46.2771 144.99 46.5971 145.48 47.1871 145.48C47.7871 145.48 48.0971 144.99 48.0971 144.1ZM50.8871 146.9C50.8871 145.55 51.5671 144.71 52.6771 144.71C53.7671 144.71 54.4671 145.55 54.4671 146.9C54.4671 148.25 53.7671 149.09 52.6771 149.09C51.5671 149.09 50.8871 148.25 50.8871 146.9ZM53.5871 146.9C53.5871 146.01 53.2671 145.51 52.6771 145.51C52.0871 145.51 51.7671 146.01 51.7671 146.9C51.7671 147.79 52.0871 148.28 52.6771 148.28C53.2671 148.28 53.5871 147.79 53.5871 146.9Z" fill="#12B76A"/>
<path d="M68.2864 150L65.6104 143.64H66.8704L68.8024 148.416H68.8264L70.7584 143.64H72.0184L69.3424 150H68.2864ZM72.0741 147.864L73.1781 147.624C73.3821 148.692 73.8861 149.136 74.9421 149.136C75.7221 149.136 76.2021 148.836 76.2021 148.356C76.2021 147.792 75.7821 147.552 74.5701 147.18C73.0341 146.748 72.3861 146.28 72.3861 145.308C72.3861 144.252 73.3581 143.46 74.6661 143.46C75.9501 143.46 76.9461 144.192 77.1981 145.344L76.0941 145.632C75.8781 144.876 75.3981 144.504 74.6661 144.504C73.9821 144.504 73.5261 144.816 73.5261 145.284C73.5261 145.68 73.8861 145.884 74.9541 146.184C76.6221 146.676 77.3541 147.204 77.3541 148.308C77.3541 149.448 76.3941 150.18 74.9421 150.18C73.2981 150.18 72.2541 149.352 72.0741 147.864ZM81.8851 150V141.6H83.1211V148.848H86.8171V150H81.8851ZM87.7221 148.344C87.7221 147.276 88.3461 146.712 89.9661 146.328C91.1181 146.04 91.4781 145.812 91.4781 145.344C91.4781 144.828 91.0341 144.492 90.3141 144.492C89.5341 144.492 88.9941 144.948 88.8381 145.752L87.6981 145.512C87.8061 144.888 88.0941 144.396 88.5621 144.024C89.0421 143.652 89.6301 143.46 90.3141 143.46C91.7901 143.46 92.7021 144.288 92.7021 145.632V150H91.6221V149.388H91.5981C91.2501 149.88 90.5901 150.18 89.8101 150.18C88.5501 150.18 87.7221 149.46 87.7221 148.344ZM91.5381 147.852V146.592H91.5141C91.4061 146.868 91.0341 147.06 90.2661 147.264C89.2581 147.516 88.8741 147.792 88.8741 148.272C88.8741 148.812 89.2461 149.124 89.9541 149.124C90.8781 149.124 91.5381 148.584 91.5381 147.852ZM93.7421 147.864L94.8461 147.624C95.0501 148.692 95.5541 149.136 96.6101 149.136C97.3901 149.136 97.8701 148.836 97.8701 148.356C97.8701 147.792 97.4501 147.552 96.2381 147.18C94.7021 146.748 94.0541 146.28 94.0541 145.308C94.0541 144.252 95.0261 143.46 96.3341 143.46C97.6181 143.46 98.6141 144.192 98.8661 145.344L97.7621 145.632C97.5461 144.876 97.0661 144.504 96.3341 144.504C95.6501 144.504 95.1941 144.816 95.1941 145.284C95.1941 145.68 95.5541 145.884 96.6221 146.184C98.2901 146.676 99.0221 147.204 99.0221 148.308C99.0221 149.448 98.0621 150.18 96.6101 150.18C94.9661 150.18 93.9221 149.352 93.7421 147.864ZM103.153 144.696H101.593V148.32C101.593 148.74 101.761 148.884 102.277 148.884H102.853V150H102.169C100.885 150 100.417 149.556 100.417 148.344V144.696H99.4215V143.64H100.417V142.152H101.593V143.64H103.153V144.696ZM107.631 150V141.6H109.155L111.759 147.948H111.783L114.387 141.6H115.911V150H114.687V143.7H114.663L112.023 150H111.507L108.879 143.7H108.855V150H107.631ZM117.358 146.82C117.358 144.816 118.582 143.46 120.394 143.46C122.206 143.46 123.43 144.816 123.43 146.82C123.43 148.824 122.206 150.18 120.394 150.18C118.582 150.18 117.358 148.824 117.358 146.82ZM122.254 146.82C122.254 145.428 121.546 144.552 120.394 144.552C119.242 144.552 118.534 145.428 118.534 146.82C118.534 148.212 119.242 149.088 120.394 149.088C121.546 149.088 122.254 148.212 122.254 146.82ZM124.653 150V143.64H125.781V144.204H125.805C126.189 143.76 126.897 143.46 127.569 143.46C129.021 143.46 129.969 144.408 129.969 145.896V150H128.793V146.076C128.793 145.128 128.253 144.552 127.341 144.552C126.429 144.552 125.829 145.164 125.829 146.076V150H124.653ZM134.443 144.696H132.883V148.32C132.883 148.74 133.051 148.884 133.567 148.884H134.143V150H133.459C132.175 150 131.707 149.556 131.707 148.344V144.696H130.711V143.64H131.707V142.152H132.883V143.64H134.443V144.696ZM135.493 150V141.24H136.669V144.204H136.693C137.065 143.76 137.737 143.46 138.409 143.46C139.861 143.46 140.809 144.408 140.809 145.86V150H139.633V146.076C139.633 145.128 139.093 144.552 138.181 144.552C137.269 144.552 136.669 145.164 136.669 146.076V150H135.493Z" fill="#667085"/>
<ellipse cx="193" cy="146" rx="3" ry="3" fill="#FF9843"/>
<path d="M203.005 150V142.752H200.437V141.6H206.785V142.752H204.241V150H203.005ZM207.699 150V141.24H208.875V144.204H208.899C209.271 143.76 209.943 143.46 210.615 143.46C212.067 143.46 213.015 144.408 213.015 145.86V150H211.839V146.076C211.839 145.128 211.299 144.552 210.387 144.552C209.475 144.552 208.875 145.164 208.875 146.076V150H207.699ZM214.414 150V143.64H215.59V150H214.414ZM214.354 142.536V141.3H215.638V142.536H214.354ZM216.679 147.864L217.783 147.624C217.987 148.692 218.491 149.136 219.547 149.136C220.327 149.136 220.807 148.836 220.807 148.356C220.807 147.792 220.387 147.552 219.175 147.18C217.639 146.748 216.991 146.28 216.991 145.308C216.991 144.252 217.963 143.46 219.271 143.46C220.555 143.46 221.551 144.192 221.803 145.344L220.699 145.632C220.483 144.876 220.003 144.504 219.271 144.504C218.587 144.504 218.131 144.816 218.131 145.284C218.131 145.68 218.491 145.884 219.559 146.184C221.227 146.676 221.959 147.204 221.959 148.308C221.959 149.448 220.999 150.18 219.547 150.18C217.903 150.18 216.859 149.352 216.679 147.864ZM226.25 150V143.64H227.378V144.144H227.402C227.738 143.724 228.362 143.46 228.986 143.46C229.658 143.46 230.294 143.772 230.63 144.252H230.654C231.098 143.76 231.71 143.46 232.394 143.46C233.69 143.46 234.662 144.36 234.662 145.632V150H233.51V145.824C233.51 145.056 233.018 144.552 232.262 144.552C231.506 144.552 231.014 145.092 231.014 145.896V150H229.898V145.824C229.898 145.056 229.394 144.552 228.662 144.552C227.894 144.552 227.402 145.092 227.402 145.896V150H226.25ZM235.83 146.82C235.83 144.816 237.054 143.46 238.866 143.46C240.678 143.46 241.902 144.816 241.902 146.82C241.902 148.824 240.678 150.18 238.866 150.18C237.054 150.18 235.83 148.824 235.83 146.82ZM240.726 146.82C240.726 145.428 240.018 144.552 238.866 144.552C237.714 144.552 237.006 145.428 237.006 146.82C237.006 148.212 237.714 149.088 238.866 149.088C240.018 149.088 240.726 148.212 240.726 146.82ZM243.125 150V143.64H244.253V144.204H244.277C244.661 143.76 245.369 143.46 246.041 143.46C247.493 143.46 248.441 144.408 248.441 145.896V150H247.265V146.076C247.265 145.128 246.725 144.552 245.813 144.552C244.901 144.552 244.301 145.164 244.301 146.076V150H243.125ZM252.914 144.696H251.354V148.32C251.354 148.74 251.522 148.884 252.038 148.884H252.614V150H251.93C250.646 150 250.178 149.556 250.178 148.344V144.696H249.182V143.64H250.178V142.152H251.354V143.64H252.914V144.696ZM253.964 150V141.24H255.14V144.204H255.164C255.536 143.76 256.208 143.46 256.88 143.46C258.332 143.46 259.28 144.408 259.28 145.86V150H258.104V146.076C258.104 145.128 257.564 144.552 256.652 144.552C255.74 144.552 255.14 145.164 255.14 146.076V150H253.964Z" fill="#667085"/>
<ellipse cx="275" cy="146" rx="3" ry="3" fill="#98A2B3"/>
<path d="M283.384 150V141.6H284.62V148.848H288.316V150H283.384ZM289.221 148.344C289.221 147.276 289.845 146.712 291.465 146.328C292.617 146.04 292.977 145.812 292.977 145.344C292.977 144.828 292.533 144.492 291.813 144.492C291.033 144.492 290.493 144.948 290.337 145.752L289.197 145.512C289.305 144.888 289.593 144.396 290.061 144.024C290.541 143.652 291.129 143.46 291.813 143.46C293.289 143.46 294.201 144.288 294.201 145.632V150H293.121V149.388H293.097C292.749 149.88 292.089 150.18 291.309 150.18C290.049 150.18 289.221 149.46 289.221 148.344ZM293.037 147.852V146.592H293.013C292.905 146.868 292.533 147.06 291.765 147.264C290.757 147.516 290.373 147.792 290.373 148.272C290.373 148.812 290.745 149.124 291.453 149.124C292.377 149.124 293.037 148.584 293.037 147.852ZM295.241 147.864L296.345 147.624C296.549 148.692 297.053 149.136 298.109 149.136C298.889 149.136 299.369 148.836 299.369 148.356C299.369 147.792 298.949 147.552 297.737 147.18C296.201 146.748 295.553 146.28 295.553 145.308C295.553 144.252 296.525 143.46 297.833 143.46C299.117 143.46 300.113 144.192 300.365 145.344L299.261 145.632C299.045 144.876 298.565 144.504 297.833 144.504C297.149 144.504 296.693 144.816 296.693 145.284C296.693 145.68 297.053 145.884 298.121 146.184C299.789 146.676 300.521 147.204 300.521 148.308C300.521 149.448 299.561 150.18 298.109 150.18C296.465 150.18 295.421 149.352 295.241 147.864ZM304.653 144.696H303.093V148.32C303.093 148.74 303.261 148.884 303.777 148.884H304.353V150H303.669C302.385 150 301.917 149.556 301.917 148.344V144.696H300.921V143.64H301.917V142.152H303.093V143.64H304.653V144.696ZM308.89 150V143.64H310.018V144.144H310.042C310.378 143.724 311.002 143.46 311.626 143.46C312.298 143.46 312.934 143.772 313.27 144.252H313.294C313.738 143.76 314.35 143.46 315.034 143.46C316.33 143.46 317.302 144.36 317.302 145.632V150H316.15V145.824C316.15 145.056 315.658 144.552 314.902 144.552C314.146 144.552 313.654 145.092 313.654 145.896V150H312.538V145.824C312.538 145.056 312.034 144.552 311.302 144.552C310.534 144.552 310.042 145.092 310.042 145.896V150H308.89ZM318.471 146.82C318.471 144.816 319.695 143.46 321.507 143.46C323.319 143.46 324.543 144.816 324.543 146.82C324.543 148.824 323.319 150.18 321.507 150.18C319.695 150.18 318.471 148.824 318.471 146.82ZM323.367 146.82C323.367 145.428 322.659 144.552 321.507 144.552C320.355 144.552 319.647 145.428 319.647 146.82C319.647 148.212 320.355 149.088 321.507 149.088C322.659 149.088 323.367 148.212 323.367 146.82ZM325.765 150V143.64H326.893V144.204H326.917C327.301 143.76 328.009 143.46 328.681 143.46C330.133 143.46 331.081 144.408 331.081 145.896V150H329.905V146.076C329.905 145.128 329.365 144.552 328.453 144.552C327.541 144.552 326.941 145.164 326.941 146.076V150H325.765ZM335.555 144.696H333.995V148.32C333.995 148.74 334.163 148.884 334.679 148.884H335.255V150H334.571C333.287 150 332.819 149.556 332.819 148.344V144.696H331.823V143.64H332.819V142.152H333.995V143.64H335.555V144.696ZM336.605 150V141.24H337.781V144.204H337.805C338.177 143.76 338.849 143.46 339.521 143.46C340.973 143.46 341.921 144.408 341.921 145.86V150H340.745V146.076C340.745 145.128 340.205 144.552 339.293 144.552C338.381 144.552 337.781 145.164 337.781 146.076V150H336.605Z" fill="#667085"/>
</g>
</g>
<defs>
<filter id="filter0_d_89_731" x="63.134" y="19.8501" width="121.383" height="17.2998" filterUnits="userSpaceOnUse" color-interpolation-filters="sRGB">
<feFlood flood-opacity="0" result="BackgroundImageFix"/>
<feColorMatrix in="SourceAlpha" type="matrix" values="0 0 0 0 0 0 0 0 0 0 0 0 0 0 0 0 0 0 127 0" result="hardAlpha"/>
<feOffset dy="1"/>
<feGaussianBlur stdDeviation="1"/>
<feColorMatrix type="matrix" values="0 0 0 0 0.0627451 0 0 0 0 0.0941176 0 0 0 0 0.156863 0 0 0 0.05 0"/>
<feBlend mode="normal" in2="BackgroundImageFix" result="effect1_dropShadow_89_731"/>
<feBlend mode="normal" in="SourceGraphic" in2="effect1_dropShadow_89_731" result="shape"/>
</filter>
<filter id="filter1_d_89_731" x="63.5" y="39.3999" width="91.5234" height="24" filterUnits="userSpaceOnUse" color-interpolation-filters="sRGB">
<feFlood flood-opacity="0" result="BackgroundImageFix"/>
<feColorMatrix in="SourceAlpha" type="matrix" values="0 0 0 0 0 0 0 0 0 0 0 0 0 0 0 0 0 0 127 0" result="hardAlpha"/>
<feOffset dy="1"/>
<feGaussianBlur stdDeviation="1"/>
<feColorMatrix type="matrix" values="0 0 0 0 0.0627451 0 0 0 0 0.0941176 0 0 0 0 0.156863 0 0 0 0.05 0"/>
<feBlend mode="normal" in2="BackgroundImageFix" result="effect1_dropShadow_89_731"/>
<feBlend mode="normal" in="SourceGraphic" in2="effect1_dropShadow_89_731" result="shape"/>
</filter>
<filter id="filter2_dd_89_731" x="2" y="82" width="356" height="236" filterUnits="userSpaceOnUse" color-interpolation-filters="sRGB">
<feFlood flood-opacity="0" result="BackgroundImageFix"/>
<feColorMatrix in="SourceAlpha" type="matrix" values="0 0 0 0 0 0 0 0 0 0 0 0 0 0 0 0 0 0 127 0" result="hardAlpha"/>
<feOffset dy="1"/>
<feGaussianBlur stdDeviation="1"/>
<feColorMatrix type="matrix" values="0 0 0 0 0.0627451 0 0 0 0 0.0941176 0 0 0 0 0.156863 0 0 0 0.06 0"/>
<feBlend mode="normal" in2="BackgroundImageFix" result="effect1_dropShadow_89_731"/>
<feColorMatrix in="SourceAlpha" type="matrix" values="0 0 0 0 0 0 0 0 0 0 0 0 0 0 0 0 0 0 127 0" result="hardAlpha"/>
<feOffset dy="1"/>
<feGaussianBlur stdDeviation="1.5"/>
<feColorMatrix type="matrix" values="0 0 0 0 0.0627451 0 0 0 0 0.0941176 0 0 0 0 0.156863 0 0 0 0.1 0"/>
<feBlend mode="normal" in2="effect1_dropShadow_89_731" result="effect2_dropShadow_89_731"/>
<feBlend mode="normal" in="SourceGraphic" in2="effect2_dropShadow_89_731" result="shape"/>
</filter>
<linearGradient id="paint0_linear_89_731" x1="0" y1="0" x2="255.115" y2="390.711" gradientUnits="userSpaceOnUse">
<stop stop-color="#FF8825"/>
<stop offset="1" stop-color="#FFDA58"/>
</linearGradient>
<clipPath id="clip0_89_731">
<rect width="359" height="318" rx="16" fill="white"/>
</clipPath>
</defs>
</svg>
