<svg width="20" height="20" viewBox="0 0 20 20" fill="none" xmlns="http://www.w3.org/2000/svg">
<path d="M10 16.6666H4.33335C3.39993 16.6666 2.93322 16.6666 2.5767 16.4849C2.2631 16.3251 2.00813 16.0702 1.84834 15.7566C1.66669 15.4 1.66669 14.9333 1.66669 13.9999V5.99992C1.66669 5.0665 1.66669 4.59979 1.84834 4.24327C2.00813 3.92966 2.2631 3.6747 2.5767 3.51491C2.93322 3.33325 3.39993 3.33325 4.33335 3.33325H4.66669C6.53353 3.33325 7.46695 3.33325 8.17999 3.69656C8.8072 4.01614 9.31713 4.52608 9.63671 5.15328C10 5.86632 10 6.79974 10 8.66659M10 16.6666V8.66659M10 16.6666H15.6667C16.6001 16.6666 17.0668 16.6666 17.4233 16.4849C17.7369 16.3251 17.9919 16.0702 18.1517 15.7566C18.3334 15.4 18.3334 14.9333 18.3334 13.9999V5.99992C18.3334 5.0665 18.3334 4.59979 18.1517 4.24327C17.9919 3.92966 17.7369 3.6747 17.4233 3.51491C17.0668 3.33325 16.6001 3.33325 15.6667 3.33325H15.3334C13.4665 3.33325 12.5331 3.33325 11.8201 3.69656C11.1928 4.01614 10.6829 4.52608 10.3633 5.15328C10 5.86632 10 6.79974 10 8.66659" stroke="white" stroke-width="1.67" stroke-linecap="round" stroke-linejoin="round"/>
</svg>
