<svg width="327" height="249" viewBox="0 0 327 249" fill="none" xmlns="http://www.w3.org/2000/svg">
<circle cx="166.063" cy="117.152" r="100.998" stroke="#EFEFEF" stroke-width="0.645433"/>
<path d="M166.063 15.8315V218.473" stroke="#EFEFEF" stroke-width="0.791569"/>
<path d="M267.384 117.152L64.7424 117.152" stroke="#EFEFEF" stroke-width="0.791569"/>
<path d="M237.706 188.796L94.4171 45.5071" stroke="#EFEFEF" stroke-width="0.791569"/>
<path d="M94.4108 188.796L237.7 45.5071" stroke="#EFEFEF" stroke-width="0.791569"/>
<circle cx="166.061" cy="117.152" r="54.2347" stroke="#EFEFEF" stroke-width="0.645433"/>
<g style="mix-blend-mode:multiply">
<path d="M135.984 50.2646L97.9883 91.822L124.11 131.005L132.422 182.852L193.768 176.52L231.368 142.482L236.117 89.4473L179.52 79.5527L135.984 50.2646Z" fill="#FFF0E3"/>
<path d="M135.984 50.2646L97.9883 91.822L124.11 131.005L132.422 182.852L193.768 176.52L231.368 142.482L236.117 89.4473L179.52 79.5527L135.984 50.2646Z" stroke="#FF9843" stroke-width="0.791569" stroke-linecap="round"/>
</g>
<circle cx="135.677" cy="50.3541" r="3.65131" fill="#FF9843" stroke="white" stroke-width="1.58314"/>
<circle cx="97.6818" cy="91.5155" r="3.65131" fill="#FF9843" stroke="white" stroke-width="1.58314"/>
<circle cx="124.595" cy="131.886" r="3.65131" fill="#FF9843" stroke="white" stroke-width="1.58314"/>
<circle cx="133.302" cy="183.338" r="3.65131" fill="#FF9843" stroke="white" stroke-width="1.58314"/>
<circle cx="193.462" cy="176.214" r="3.65131" fill="#FF9843" stroke="white" stroke-width="1.58314"/>
<circle cx="230.665" cy="142.968" r="3.65131" fill="#FF9843" stroke="white" stroke-width="1.58314"/>
<circle cx="236.206" cy="89.141" r="3.65131" fill="#FF9843" stroke="white" stroke-width="1.58314"/>
<circle cx="181.588" cy="80.4337" r="3.65131" fill="#FF9843" stroke="white" stroke-width="1.58314"/>
<path d="M80.5158 12.766L81.9298 12.486C82.1398 14.152 82.9658 14.88 84.6038 14.88C85.8358 14.88 86.6198 14.334 86.6198 13.494C86.6198 12.584 86.0318 12.108 84.1138 11.492C81.7618 10.722 80.9778 9.994 80.9778 8.636C80.9778 7.082 82.2938 5.99 84.1698 5.99C85.1078 5.99 85.9058 6.256 86.5638 6.774C87.2218 7.292 87.6138 7.978 87.7678 8.846L86.3678 9.154C86.0598 7.936 85.3318 7.32 84.1698 7.32C83.0918 7.32 82.4058 7.838 82.4058 8.636C82.4058 9.294 82.9238 9.686 84.5898 10.204C87.1238 11.044 88.0478 11.898 88.0478 13.466C88.0478 15.104 86.6338 16.21 84.5758 16.21C82.2098 16.21 80.7818 14.992 80.5158 12.766ZM89.3166 16V5.78H90.6886V9.238H90.7166C91.1506 8.72 91.9346 8.37 92.7186 8.37C94.4126 8.37 95.5186 9.476 95.5186 11.17V16H94.1466V11.422C94.1466 10.316 93.5166 9.644 92.4526 9.644C91.3886 9.644 90.6886 10.358 90.6886 11.422V16H89.3166ZM96.8706 12.29C96.8706 9.952 98.2986 8.37 100.413 8.37C102.527 8.37 103.955 9.952 103.955 12.29C103.955 14.628 102.527 16.21 100.413 16.21C98.2986 16.21 96.8706 14.628 96.8706 12.29ZM102.583 12.29C102.583 10.666 101.757 9.644 100.413 9.644C99.0686 9.644 98.2426 10.666 98.2426 12.29C98.2426 13.914 99.0686 14.936 100.413 14.936C101.757 14.936 102.583 13.914 102.583 12.29ZM105.241 13.41V8.58H106.613V13.158C106.613 14.348 107.159 14.936 108.279 14.936C109.301 14.936 109.973 14.236 109.973 13.158V8.58H111.345V16H110.029V15.342H109.987C109.539 15.888 108.727 16.21 107.873 16.21C106.207 16.21 105.241 15.188 105.241 13.41ZM113.051 16V8.58H114.367V9.238H114.395C114.843 8.72 115.669 8.37 116.453 8.37C118.147 8.37 119.253 9.476 119.253 11.212V16H117.881V11.422C117.881 10.316 117.251 9.644 116.187 9.644C115.123 9.644 114.423 10.358 114.423 11.422V16H113.051ZM120.605 12.29C120.605 9.98 122.019 8.37 124.049 8.37C126.065 8.37 127.409 9.896 127.409 12.122V12.696H121.991C122.005 13.354 122.201 13.914 122.579 14.348C122.957 14.782 123.447 14.992 124.049 14.992C124.987 14.992 125.547 14.628 126.163 13.634L127.227 14.348C126.569 15.58 125.477 16.21 124.063 16.21C122.005 16.21 120.605 14.628 120.605 12.29ZM122.019 11.646H126.051C125.995 10.428 125.225 9.588 124.049 9.588C122.929 9.588 122.047 10.526 122.019 11.646ZM128.842 16V8.58H130.158V9.238H130.186C130.634 8.72 131.46 8.37 132.244 8.37C133.938 8.37 135.044 9.476 135.044 11.212V16H133.672V11.422C133.672 10.316 133.042 9.644 131.978 9.644C130.914 9.644 130.214 10.358 130.214 11.422V16H128.842Z" fill="#344054"/>
<path d="M97.6471 240.806V231.006H100.797C103.317 231.006 105.039 232.84 105.039 235.892C105.039 239.14 103.415 240.806 100.741 240.806H97.6471ZM99.0891 239.462H100.685C102.631 239.462 103.597 238.272 103.597 235.892C103.597 233.582 102.533 232.35 100.755 232.35H99.0891V239.462ZM106.473 240.806V233.386H107.761V234.002H107.789C108.083 233.54 108.657 233.26 109.343 233.26C109.609 233.26 109.889 233.302 110.169 233.372L109.903 234.744C109.609 234.66 109.357 234.618 109.133 234.618C108.279 234.618 107.845 235.206 107.845 236.494V240.806H106.473ZM110.5 238.874C110.5 237.628 111.228 236.97 113.118 236.522C114.462 236.186 114.882 235.92 114.882 235.374C114.882 234.772 114.364 234.38 113.524 234.38C112.614 234.38 111.984 234.912 111.802 235.85L110.472 235.57C110.598 234.842 110.934 234.268 111.48 233.834C112.04 233.4 112.726 233.176 113.524 233.176C115.246 233.176 116.31 234.142 116.31 235.71V240.806H115.05V240.092H115.022C114.616 240.666 113.846 241.016 112.936 241.016C111.466 241.016 110.5 240.176 110.5 238.874ZM114.952 238.3V236.83H114.924C114.798 237.152 114.364 237.376 113.468 237.614C112.292 237.908 111.844 238.23 111.844 238.79C111.844 239.42 112.278 239.784 113.104 239.784C114.182 239.784 114.952 239.154 114.952 238.3ZM117.943 240.806V233.386H119.259V233.974H119.287C119.679 233.484 120.407 233.176 121.135 233.176C121.919 233.176 122.661 233.54 123.053 234.1H123.081C123.599 233.526 124.313 233.176 125.111 233.176C126.623 233.176 127.757 234.226 127.757 235.71V240.806H126.413V235.934C126.413 235.038 125.839 234.45 124.957 234.45C124.075 234.45 123.501 235.08 123.501 236.018V240.806H122.199V235.934C122.199 235.038 121.611 234.45 120.757 234.45C119.861 234.45 119.287 235.08 119.287 236.018V240.806H117.943ZM129.148 238.874C129.148 237.628 129.876 236.97 131.766 236.522C133.11 236.186 133.53 235.92 133.53 235.374C133.53 234.772 133.012 234.38 132.172 234.38C131.262 234.38 130.632 234.912 130.45 235.85L129.12 235.57C129.246 234.842 129.582 234.268 130.128 233.834C130.688 233.4 131.374 233.176 132.172 233.176C133.894 233.176 134.958 234.142 134.958 235.71V240.806H133.698V240.092H133.67C133.264 240.666 132.494 241.016 131.584 241.016C130.114 241.016 129.148 240.176 129.148 238.874ZM133.6 238.3V236.83H133.572C133.446 237.152 133.012 237.376 132.116 237.614C130.94 237.908 130.492 238.23 130.492 238.79C130.492 239.42 130.926 239.784 131.752 239.784C132.83 239.784 133.6 239.154 133.6 238.3Z" fill="#344054"/>
<path d="M198.068 16V6.2H199.51V10.33H203.528V6.2H204.97V16H203.528V11.604H199.51V16H198.068ZM206.669 12.29C206.669 9.952 208.097 8.37 210.211 8.37C212.325 8.37 213.753 9.952 213.753 12.29C213.753 14.628 212.325 16.21 210.211 16.21C208.097 16.21 206.669 14.628 206.669 12.29ZM212.381 12.29C212.381 10.666 211.555 9.644 210.211 9.644C208.867 9.644 208.041 10.666 208.041 12.29C208.041 13.914 208.867 14.936 210.211 14.936C211.555 14.936 212.381 13.914 212.381 12.29ZM215.179 16V8.58H216.467V9.196H216.495C216.789 8.734 217.363 8.454 218.049 8.454C218.315 8.454 218.595 8.496 218.875 8.566L218.609 9.938C218.315 9.854 218.063 9.812 217.839 9.812C216.985 9.812 216.551 10.4 216.551 11.688V16H215.179ZM219.937 16V8.58H221.225V9.196H221.253C221.547 8.734 222.121 8.454 222.807 8.454C223.073 8.454 223.353 8.496 223.633 8.566L223.367 9.938C223.073 9.854 222.821 9.812 222.597 9.812C221.743 9.812 221.309 10.4 221.309 11.688V16H219.937ZM223.991 12.29C223.991 9.952 225.419 8.37 227.533 8.37C229.647 8.37 231.075 9.952 231.075 12.29C231.075 14.628 229.647 16.21 227.533 16.21C225.419 16.21 223.991 14.628 223.991 12.29ZM229.703 12.29C229.703 10.666 228.877 9.644 227.533 9.644C226.189 9.644 225.363 10.666 225.363 12.29C225.363 13.914 226.189 14.936 227.533 14.936C228.877 14.936 229.703 13.914 229.703 12.29ZM232.501 16V8.58H233.789V9.196H233.817C234.111 8.734 234.685 8.454 235.371 8.454C235.637 8.454 235.917 8.496 236.197 8.566L235.931 9.938C235.637 9.854 235.385 9.812 235.161 9.812C234.307 9.812 233.873 10.4 233.873 11.688V16H232.501Z" fill="#344054"/>
<path d="M197.368 237.572L198.782 237.292C198.992 238.958 199.818 239.686 201.456 239.686C202.688 239.686 203.472 239.14 203.472 238.3C203.472 237.39 202.884 236.914 200.966 236.298C198.614 235.528 197.83 234.8 197.83 233.442C197.83 231.888 199.146 230.796 201.022 230.796C201.96 230.796 202.758 231.062 203.416 231.58C204.074 232.098 204.466 232.784 204.62 233.652L203.22 233.96C202.912 232.742 202.184 232.126 201.022 232.126C199.944 232.126 199.258 232.644 199.258 233.442C199.258 234.1 199.776 234.492 201.442 235.01C203.976 235.85 204.9 236.704 204.9 238.272C204.9 239.91 203.486 241.016 201.428 241.016C199.062 241.016 197.634 239.798 197.368 237.572ZM205.889 237.096C205.889 234.772 207.317 233.176 209.375 233.176C210.229 233.176 210.957 233.428 211.545 233.918C212.147 234.408 212.511 235.066 212.637 235.892L211.321 236.158C211.139 235.08 210.425 234.45 209.375 234.45C208.087 234.45 207.261 235.472 207.261 237.096C207.261 238.72 208.087 239.742 209.375 239.742C210.425 239.742 211.111 239.14 211.321 238.034L212.637 238.3C212.511 239.126 212.147 239.798 211.545 240.288C210.957 240.778 210.229 241.016 209.375 241.016C207.317 241.016 205.889 239.42 205.889 237.096ZM213.99 240.806V230.586H215.362V234.044H215.39C215.824 233.526 216.608 233.176 217.392 233.176C219.086 233.176 220.192 234.282 220.192 235.976V240.806H218.82V236.228C218.82 235.122 218.19 234.45 217.126 234.45C216.062 234.45 215.362 235.164 215.362 236.228V240.806H213.99ZM221.544 237.096C221.544 234.758 222.972 233.176 225.086 233.176C227.2 233.176 228.628 234.758 228.628 237.096C228.628 239.434 227.2 241.016 225.086 241.016C222.972 241.016 221.544 239.434 221.544 237.096ZM227.256 237.096C227.256 235.472 226.43 234.45 225.086 234.45C223.742 234.45 222.916 235.472 222.916 237.096C222.916 238.72 223.742 239.742 225.086 239.742C226.43 239.742 227.256 238.72 227.256 237.096ZM229.774 237.096C229.774 234.758 231.202 233.176 233.316 233.176C235.43 233.176 236.858 234.758 236.858 237.096C236.858 239.434 235.43 241.016 233.316 241.016C231.202 241.016 229.774 239.434 229.774 237.096ZM235.486 237.096C235.486 235.472 234.66 234.45 233.316 234.45C231.972 234.45 231.146 235.472 231.146 237.096C231.146 238.72 231.972 239.742 233.316 239.742C234.66 239.742 235.486 238.72 235.486 237.096ZM238.285 240.806V230.586H239.657V240.806H238.285Z" fill="#344054"/>
<path d="M274.291 87.8822C274.291 84.8162 275.957 82.7722 278.463 82.7722C280.479 82.7722 282.005 84.1442 282.257 86.2162L280.843 86.4542C280.577 84.9282 279.765 84.1162 278.463 84.1162C276.769 84.1162 275.733 85.5442 275.733 87.8822C275.733 90.2342 276.769 91.6482 278.463 91.6482C279.849 91.6482 280.661 90.7802 280.843 89.1002L282.285 89.3102C282.187 90.4442 281.795 91.3542 281.109 92.0122C280.423 92.6702 279.541 92.9922 278.463 92.9922C275.929 92.9922 274.291 90.9762 274.291 87.8822ZM283.287 89.0722C283.287 86.7342 284.715 85.1522 286.829 85.1522C288.943 85.1522 290.371 86.7342 290.371 89.0722C290.371 91.4102 288.943 92.9922 286.829 92.9922C284.715 92.9922 283.287 91.4102 283.287 89.0722ZM288.999 89.0722C288.999 87.4482 288.173 86.4262 286.829 86.4262C285.485 86.4262 284.659 87.4482 284.659 89.0722C284.659 90.6962 285.485 91.7182 286.829 91.7182C288.173 91.7182 288.999 90.6962 288.999 89.0722ZM291.797 92.7822V85.3622H293.113V85.9502H293.141C293.533 85.4602 294.261 85.1522 294.989 85.1522C295.773 85.1522 296.515 85.5162 296.907 86.0762H296.935C297.453 85.5022 298.167 85.1522 298.965 85.1522C300.477 85.1522 301.611 86.2022 301.611 87.6862V92.7822H300.267V87.9102C300.267 87.0142 299.693 86.4262 298.811 86.4262C297.929 86.4262 297.355 87.0562 297.355 87.9942V92.7822H296.053V87.9102C296.053 87.0142 295.465 86.4262 294.611 86.4262C293.715 86.4262 293.141 87.0562 293.141 87.9942V92.7822H291.797ZM302.974 89.0722C302.974 86.7622 304.388 85.1522 306.418 85.1522C308.434 85.1522 309.778 86.6782 309.778 88.9042V89.4782H304.36C304.374 90.1362 304.57 90.6962 304.948 91.1302C305.326 91.5642 305.816 91.7742 306.418 91.7742C307.356 91.7742 307.916 91.4102 308.532 90.4162L309.596 91.1302C308.938 92.3622 307.846 92.9922 306.432 92.9922C304.374 92.9922 302.974 91.4102 302.974 89.0722ZM304.388 88.4282H308.42C308.364 87.2102 307.594 86.3702 306.418 86.3702C305.298 86.3702 304.416 87.3082 304.388 88.4282ZM310.931 89.0722C310.931 86.7762 312.331 85.1522 314.263 85.1522C315.103 85.1522 315.859 85.4882 316.349 86.0342H316.377V82.5622H317.749V92.7822H316.461V92.0682H316.433C315.971 92.6422 315.159 92.9922 314.249 92.9922C312.331 92.9922 310.931 91.3682 310.931 89.0722ZM316.377 89.7162V88.4142C316.377 87.3222 315.495 86.4262 314.375 86.4262C313.101 86.4262 312.303 87.4482 312.303 89.0722C312.303 90.6962 313.129 91.7182 314.417 91.7182C315.509 91.7182 316.377 90.8222 316.377 89.7162ZM320.015 95.9322L321.555 92.2222L318.699 85.3622H320.141L322.241 90.6402H322.269L324.397 85.3622H325.839L321.429 95.9322H320.015Z" fill="#344054"/>
<path d="M274.851 163.232V153.432H280.871V154.776H276.293V157.926H280.507V159.2H276.293V163.232H274.851ZM281.674 161.3C281.674 160.054 282.402 159.396 284.292 158.948C285.636 158.612 286.056 158.346 286.056 157.8C286.056 157.198 285.538 156.806 284.698 156.806C283.788 156.806 283.158 157.338 282.976 158.276L281.646 157.996C281.772 157.268 282.108 156.694 282.654 156.26C283.214 155.826 283.9 155.602 284.698 155.602C286.42 155.602 287.484 156.568 287.484 158.136V163.232H286.224V162.518H286.196C285.79 163.092 285.02 163.442 284.11 163.442C282.64 163.442 281.674 162.602 281.674 161.3ZM286.126 160.726V159.256H286.098C285.972 159.578 285.538 159.802 284.642 160.04C283.466 160.334 283.018 160.656 283.018 161.216C283.018 161.846 283.452 162.21 284.278 162.21C285.356 162.21 286.126 161.58 286.126 160.726ZM289.117 163.232V155.812H290.433V156.47H290.461C290.909 155.952 291.735 155.602 292.519 155.602C294.213 155.602 295.319 156.708 295.319 158.444V163.232H293.947V158.654C293.947 157.548 293.317 156.876 292.253 156.876C291.189 156.876 290.489 157.59 290.489 158.654V163.232H289.117ZM300.539 157.044H298.719V161.272C298.719 161.762 298.915 161.93 299.517 161.93H300.189V163.232H299.391C297.893 163.232 297.347 162.714 297.347 161.3V157.044H296.185V155.812H297.347V154.076H298.719V155.812H300.539V157.044ZM301.129 161.3C301.129 160.054 301.857 159.396 303.747 158.948C305.091 158.612 305.511 158.346 305.511 157.8C305.511 157.198 304.993 156.806 304.153 156.806C303.243 156.806 302.613 157.338 302.431 158.276L301.101 157.996C301.227 157.268 301.563 156.694 302.109 156.26C302.669 155.826 303.355 155.602 304.153 155.602C305.875 155.602 306.939 156.568 306.939 158.136V163.232H305.679V162.518H305.651C305.245 163.092 304.475 163.442 303.565 163.442C302.095 163.442 301.129 162.602 301.129 161.3ZM305.581 160.726V159.256H305.553C305.427 159.578 304.993 159.802 304.097 160.04C302.921 160.334 302.473 160.656 302.473 161.216C302.473 161.846 302.907 162.21 303.733 162.21C304.811 162.21 305.581 161.58 305.581 160.726ZM308.153 160.74L309.441 160.46C309.679 161.706 310.267 162.224 311.499 162.224C312.409 162.224 312.969 161.874 312.969 161.314C312.969 160.656 312.479 160.376 311.065 159.942C309.273 159.438 308.517 158.892 308.517 157.758C308.517 156.526 309.651 155.602 311.177 155.602C312.675 155.602 313.837 156.456 314.131 157.8L312.843 158.136C312.591 157.254 312.031 156.82 311.177 156.82C310.379 156.82 309.847 157.184 309.847 157.73C309.847 158.192 310.267 158.43 311.513 158.78C313.459 159.354 314.313 159.97 314.313 161.258C314.313 162.588 313.193 163.442 311.499 163.442C309.581 163.442 308.363 162.476 308.153 160.74ZM315.695 166.382L317.235 162.672L314.379 155.812H315.821L317.921 161.09H317.949L320.077 155.812H321.519L317.109 166.382H315.695Z" fill="#344054"/>
<path d="M6.02127 88.0567V88.0707L8.13527 91.9907H6.51127L4.49527 88.1687H2.77327V91.9907H1.33127V82.1907H5.02727C7.08527 82.1907 8.31727 83.3107 8.31727 85.1727C8.31727 86.6847 7.47727 87.7347 6.02127 88.0567ZM2.77327 86.8387H4.88727C6.18927 86.8387 6.87527 86.2507 6.87527 85.1727C6.87527 84.0807 6.21727 83.5347 4.88727 83.5347H2.77327V86.8387ZM9.08377 88.2807C9.08377 85.9427 10.5118 84.3607 12.6258 84.3607C14.7398 84.3607 16.1678 85.9427 16.1678 88.2807C16.1678 90.6187 14.7398 92.2007 12.6258 92.2007C10.5118 92.2007 9.08377 90.6187 9.08377 88.2807ZM14.7958 88.2807C14.7958 86.6567 13.9698 85.6347 12.6258 85.6347C11.2818 85.6347 10.4558 86.6567 10.4558 88.2807C10.4558 89.9047 11.2818 90.9267 12.6258 90.9267C13.9698 90.9267 14.7958 89.9047 14.7958 88.2807ZM17.5942 91.9907V84.5707H18.9102V85.1587H18.9382C19.3302 84.6687 20.0582 84.3607 20.7862 84.3607C21.5702 84.3607 22.3122 84.7247 22.7042 85.2847H22.7322C23.2502 84.7107 23.9642 84.3607 24.7622 84.3607C26.2742 84.3607 27.4082 85.4107 27.4082 86.8947V91.9907H26.0642V87.1187C26.0642 86.2227 25.4902 85.6347 24.6082 85.6347C23.7262 85.6347 23.1522 86.2647 23.1522 87.2027V91.9907H21.8502V87.1187C21.8502 86.2227 21.2622 85.6347 20.4082 85.6347C19.5122 85.6347 18.9382 86.2647 18.9382 87.2027V91.9907H17.5942ZM28.7993 90.0587C28.7993 88.8127 29.5273 88.1547 31.4173 87.7067C32.7613 87.3707 33.1813 87.1047 33.1813 86.5587C33.1813 85.9567 32.6633 85.5647 31.8233 85.5647C30.9133 85.5647 30.2833 86.0967 30.1013 87.0347L28.7713 86.7547C28.8973 86.0267 29.2333 85.4527 29.7793 85.0187C30.3393 84.5847 31.0253 84.3607 31.8233 84.3607C33.5453 84.3607 34.6093 85.3267 34.6093 86.8947V91.9907H33.3493V91.2767H33.3213C32.9153 91.8507 32.1453 92.2007 31.2353 92.2007C29.7653 92.2007 28.7993 91.3607 28.7993 90.0587ZM33.2513 89.4847V88.0147H33.2233C33.0973 88.3367 32.6633 88.5607 31.7673 88.7987C30.5913 89.0927 30.1433 89.4147 30.1433 89.9747C30.1433 90.6047 30.5773 90.9687 31.4033 90.9687C32.4813 90.9687 33.2513 90.3387 33.2513 89.4847ZM36.2427 91.9907V84.5707H37.5587V85.2287H37.5867C38.0347 84.7107 38.8607 84.3607 39.6447 84.3607C41.3387 84.3607 42.4447 85.4667 42.4447 87.2027V91.9907H41.0727V87.4127C41.0727 86.3067 40.4427 85.6347 39.3787 85.6347C38.3147 85.6347 37.6147 86.3487 37.6147 87.4127V91.9907H36.2427ZM43.7967 88.2807C43.7967 85.9567 45.2247 84.3607 47.2827 84.3607C48.1367 84.3607 48.8647 84.6127 49.4527 85.1027C50.0547 85.5927 50.4187 86.2507 50.5447 87.0767L49.2287 87.3427C49.0467 86.2647 48.3327 85.6347 47.2827 85.6347C45.9947 85.6347 45.1687 86.6567 45.1687 88.2807C45.1687 89.9047 45.9947 90.9267 47.2827 90.9267C48.3327 90.9267 49.0187 90.3247 49.2287 89.2187L50.5447 89.4847C50.4187 90.3107 50.0547 90.9827 49.4527 91.4727C48.8647 91.9627 48.1367 92.2007 47.2827 92.2007C45.2247 92.2007 43.7967 90.6047 43.7967 88.2807ZM51.617 88.2807C51.617 85.9707 53.031 84.3607 55.061 84.3607C57.077 84.3607 58.421 85.8867 58.421 88.1127V88.6867H53.003C53.017 89.3447 53.213 89.9047 53.591 90.3387C53.969 90.7727 54.459 90.9827 55.061 90.9827C55.999 90.9827 56.559 90.6187 57.175 89.6247L58.239 90.3387C57.581 91.5707 56.489 92.2007 55.075 92.2007C53.017 92.2007 51.617 90.6187 51.617 88.2807ZM53.031 87.6367H57.063C57.007 86.4187 56.237 85.5787 55.061 85.5787C53.941 85.5787 53.059 86.5167 53.031 87.6367Z" fill="#344054"/>
<path d="M26.1181 162.44L25.4741 160.606H21.2881L20.6441 162.44H19.1881L22.7161 152.64H24.0601L27.5741 162.44H26.1181ZM21.7221 159.346H25.0401L23.4021 154.628H23.3741L21.7221 159.346ZM27.8962 158.73C27.8962 156.406 29.3242 154.81 31.3822 154.81C32.2362 154.81 32.9642 155.062 33.5522 155.552C34.1542 156.042 34.5182 156.7 34.6442 157.526L33.3282 157.792C33.1462 156.714 32.4322 156.084 31.3822 156.084C30.0942 156.084 29.2682 157.106 29.2682 158.73C29.2682 160.354 30.0942 161.376 31.3822 161.376C32.4322 161.376 33.1182 160.774 33.3282 159.668L34.6442 159.934C34.5182 160.76 34.1542 161.432 33.5522 161.922C32.9642 162.412 32.2362 162.65 31.3822 162.65C29.3242 162.65 27.8962 161.054 27.8962 158.73ZM39.5838 156.252H37.7638V160.48C37.7638 160.97 37.9598 161.138 38.5618 161.138H39.2338V162.44H38.4358C36.9378 162.44 36.3918 161.922 36.3918 160.508V156.252H35.2298V155.02H36.3918V153.284H37.7638V155.02H39.5838V156.252ZM40.809 162.44V155.02H42.181V162.44H40.809ZM40.739 153.732V152.29H42.237V153.732H40.739ZM43.5915 158.73C43.5915 156.392 45.0195 154.81 47.1335 154.81C49.2475 154.81 50.6755 156.392 50.6755 158.73C50.6755 161.068 49.2475 162.65 47.1335 162.65C45.0195 162.65 43.5915 161.068 43.5915 158.73ZM49.3035 158.73C49.3035 157.106 48.4775 156.084 47.1335 156.084C45.7895 156.084 44.9635 157.106 44.9635 158.73C44.9635 160.354 45.7895 161.376 47.1335 161.376C48.4775 161.376 49.3035 160.354 49.3035 158.73ZM52.102 162.44V155.02H53.418V155.678H53.446C53.894 155.16 54.72 154.81 55.504 154.81C57.198 154.81 58.304 155.916 58.304 157.652V162.44H56.932V157.862C56.932 156.756 56.302 156.084 55.238 156.084C54.174 156.084 53.474 156.798 53.474 157.862V162.44H52.102Z" fill="#344054"/>
</svg>
