<svg width="20" height="20" viewBox="0 0 20 20" fill="none" xmlns="http://www.w3.org/2000/svg">
<path d="M10 16.6667H4.33335C3.39993 16.6667 2.93322 16.6667 2.5767 16.4851C2.2631 16.3253 2.00813 16.0703 1.84834 15.7567C1.66669 15.4002 1.66669 14.9335 1.66669 14V6.00004C1.66669 5.06662 1.66669 4.59991 1.84834 4.24339C2.00813 3.92979 2.2631 3.67482 2.5767 3.51503C2.93322 3.33337 3.39993 3.33337 4.33335 3.33337H4.66669C6.53353 3.33337 7.46695 3.33337 8.17999 3.69669C8.8072 4.01626 9.31713 4.5262 9.63671 5.15341C10 5.86644 10 6.79987 10 8.66671M10 16.6667V8.66671M10 16.6667H15.6667C16.6001 16.6667 17.0668 16.6667 17.4233 16.4851C17.7369 16.3253 17.9919 16.0703 18.1517 15.7567C18.3334 15.4002 18.3334 14.9335 18.3334 14V6.00004C18.3334 5.06662 18.3334 4.59991 18.1517 4.24339C17.9919 3.92979 17.7369 3.67482 17.4233 3.51503C17.0668 3.33337 16.6001 3.33337 15.6667 3.33337H15.3334C13.4665 3.33337 12.5331 3.33337 11.8201 3.69669C11.1928 4.01626 10.6829 4.5262 10.3633 5.15341C10 5.86644 10 6.79987 10 8.66671" stroke="#344054" stroke-width="2" stroke-linecap="round" stroke-linejoin="round"/>
</svg>
