<svg width="163" height="207" viewBox="0 0 163 207" fill="none" xmlns="http://www.w3.org/2000/svg">
<rect x="0.5" y="0.5" width="162" height="206" rx="7.5" stroke="#D0D5DD"/>
<rect x="12.5" y="12.5" width="39" height="39" rx="7.5" fill="white"/>
<rect x="12.5" y="12.5" width="39" height="39" rx="7.5" stroke="#EAECF0"/>
<path d="M36.1666 39.5L32 36.1667L27.8333 39.5M27.6666 36.1667H36.3333C37.7334 36.1667 38.4335 36.1667 38.9683 35.8942C39.4387 35.6545 39.8211 35.272 40.0608 34.8016C40.3333 34.2669 40.3333 33.5668 40.3333 32.1667V28.5C40.3333 27.0999 40.3333 26.3998 40.0608 25.865C39.8211 25.3946 39.4387 25.0122 38.9683 24.7725C38.4335 24.5 37.7334 24.5 36.3333 24.5H27.6666C26.2665 24.5 25.5664 24.5 25.0316 24.7725C24.5612 25.0122 24.1788 25.3946 23.9391 25.865C23.6666 26.3998 23.6666 27.0999 23.6666 28.5V32.1667C23.6666 33.5668 23.6666 34.2669 23.9391 34.8016C24.1788 35.272 24.5612 35.6545 25.0316 35.8942C25.5664 36.1667 26.2665 36.1667 27.6666 36.1667Z" stroke="#344054" stroke-width="1.66667" stroke-linecap="round" stroke-linejoin="round"/>
<path d="M12.696 88.848L15.984 87.768C16.464 89.424 17.616 90.24 19.44 90.24C21.192 90.24 22.488 89.136 22.488 87.624C22.488 86.064 21.216 84.96 19.416 84.96C18.192 84.96 17.112 85.392 16.2 86.256L13.056 85.416L14.616 76.872H24.24V80.016H17.208L16.632 83.04L16.68 83.064C17.64 82.488 18.72 82.2 19.92 82.2C23.4 82.2 25.92 84.528 25.92 87.672C25.92 91.032 23.232 93.36 19.44 93.36C16.08 93.36 13.464 91.728 12.696 88.848ZM40.6929 87.768C40.6929 91.056 38.1009 93.36 34.4769 93.36C29.9169 93.36 27.1569 90.168 27.1569 85.032C27.1089 80.04 30.1089 76.44 34.3809 76.512C37.4769 76.512 39.7809 78.168 40.4289 80.688L37.1649 81.552C36.7089 80.208 35.8449 79.632 34.4049 79.632C32.4609 79.632 31.0929 81.096 30.8049 83.712H30.8529C31.7409 82.824 33.2289 82.272 34.8849 82.272C38.2449 82.272 40.6929 84.6 40.6929 87.768ZM37.2849 87.648C37.2849 86.04 36.0609 84.96 34.3089 84.96C32.5809 84.96 31.3329 86.016 31.3329 87.648C31.3329 89.208 32.5089 90.24 34.4529 90.24C36.0849 90.24 37.2849 89.256 37.2849 87.648ZM48.9294 93V76.2H59.7534V79.464H52.4814V82.872H59.1054V85.992H52.4814V89.736H59.7774V93H48.9294ZM61.9266 98.4V80.28H65.2146V81.168H65.2626C66.1026 80.376 67.2786 79.92 68.6466 79.92C71.9346 79.92 74.3346 82.776 74.3346 86.64C74.3346 90.504 71.9346 93.36 68.6706 93.36C67.3266 93.36 66.0786 92.88 65.4066 92.112H65.3586V98.4H61.9266ZM70.9026 86.64C70.9026 84.36 69.8466 83.064 67.9986 83.064C66.4626 83.064 65.3586 84.168 65.3586 85.728V87.552C65.3586 89.088 66.4626 90.24 67.9986 90.24C69.8466 90.24 70.9026 88.92 70.9026 86.64ZM75.2451 88.896L78.2931 88.08C78.7011 89.808 79.5651 90.552 81.1971 90.552C82.4211 90.552 83.1171 90.168 83.1171 89.52C83.1171 89.208 82.9971 88.944 82.7571 88.728C82.3011 88.32 81.7251 88.128 80.3571 87.672C77.7171 86.928 76.0371 86.256 75.9171 83.76C75.9171 81.6 77.9811 79.92 80.7171 79.92C82.0131 79.92 83.1651 80.256 84.1491 80.952C85.1331 81.648 85.7811 82.536 86.0931 83.664L83.0691 84.552C82.6611 83.328 81.7971 82.704 80.7171 82.704C79.7331 82.704 79.1091 83.136 79.1091 83.712C79.1091 84.288 79.7331 84.528 81.3891 85.008C82.3731 85.296 83.2131 85.584 83.8611 85.872C85.2051 86.448 86.3091 87.576 86.3091 89.4C86.3091 90.576 85.8531 91.536 84.9171 92.28C83.9811 93 82.7571 93.36 81.1971 93.36C77.9331 93.36 75.7971 91.776 75.2451 88.896Z" fill="#101828"/>
<path d="M15.936 121V111.336H12.512V109.8H20.976V111.336H17.584V121H15.936ZM22.8675 121L19.2995 112.52H20.9795L23.5555 118.888H23.5875L26.1635 112.52H27.8435L24.2755 121H22.8675ZM28.4043 121.688L27.3483 121.24L33.1083 109.08L34.1643 109.56L28.4043 121.688ZM35.8585 121V109.8H37.8905L41.3625 118.264H41.3945L44.8665 109.8H46.8985V121H45.2665V112.6H45.2345L41.7145 121H41.0265L37.5225 112.6H37.4905V121H35.8585ZM48.8279 116.76C48.8279 114.088 50.4599 112.28 52.8759 112.28C55.2919 112.28 56.9239 114.088 56.9239 116.76C56.9239 119.432 55.2919 121.24 52.8759 121.24C50.4599 121.24 48.8279 119.432 48.8279 116.76ZM55.3559 116.76C55.3559 114.904 54.4119 113.736 52.8759 113.736C51.3399 113.736 50.3959 114.904 50.3959 116.76C50.3959 118.616 51.3399 119.784 52.8759 119.784C54.4119 119.784 55.3559 118.616 55.3559 116.76ZM60.7269 121L57.1589 112.52H58.8389L61.4149 118.888H61.4469L64.0229 112.52H65.7029L62.1349 121H60.7269ZM66.7885 121V112.52H68.3565V121H66.7885ZM66.7085 111.048V109.4H68.4205V111.048H66.7085ZM69.9685 116.76C69.9685 114.12 71.5845 112.28 73.9045 112.28C76.2085 112.28 77.7445 114.024 77.7445 116.568V117.224H71.5525C71.5685 117.976 71.7925 118.616 72.2245 119.112C72.6565 119.608 73.2165 119.848 73.9045 119.848C74.9765 119.848 75.6165 119.432 76.3205 118.296L77.5365 119.112C76.7845 120.52 75.5365 121.24 73.9205 121.24C71.5685 121.24 69.9685 119.432 69.9685 116.76ZM71.5845 116.024H76.1925C76.1285 114.632 75.2485 113.672 73.9045 113.672C72.6245 113.672 71.6165 114.744 71.5845 116.024ZM84.7758 121L82.6158 109.8H84.3118L85.9118 118.376H85.9438L88.4718 109.8H90.0238L92.5678 118.376H92.5998L94.1998 109.8H95.8798L93.7358 121H91.8318L89.2718 112.408H89.2398L86.6638 121H84.7758ZM96.6411 118.792C96.6411 117.368 97.4731 116.616 99.6331 116.104C101.169 115.72 101.649 115.416 101.649 114.792C101.649 114.104 101.057 113.656 100.097 113.656C99.0571 113.656 98.3371 114.264 98.1291 115.336L96.6091 115.016C96.7531 114.184 97.1371 113.528 97.7611 113.032C98.4011 112.536 99.1851 112.28 100.097 112.28C102.065 112.28 103.281 113.384 103.281 115.176V121H101.841V120.184H101.809C101.345 120.84 100.465 121.24 99.4251 121.24C97.7451 121.24 96.6411 120.28 96.6411 118.792ZM101.729 118.136V116.456H101.697C101.553 116.824 101.057 117.08 100.033 117.352C98.6891 117.688 98.1771 118.056 98.1771 118.696C98.1771 119.416 98.6731 119.832 99.6171 119.832C100.849 119.832 101.729 119.112 101.729 118.136ZM109.248 113.928H107.168V118.76C107.168 119.32 107.392 119.512 108.08 119.512H108.848V121H107.936C106.224 121 105.6 120.408 105.6 118.792V113.928H104.272V112.52H105.6V110.536H107.168V112.52H109.248V113.928ZM109.89 116.76C109.89 114.104 111.522 112.28 113.874 112.28C114.85 112.28 115.682 112.568 116.354 113.128C117.042 113.688 117.458 114.44 117.602 115.384L116.098 115.688C115.89 114.456 115.074 113.736 113.874 113.736C112.402 113.736 111.458 114.904 111.458 116.76C111.458 118.616 112.402 119.784 113.874 119.784C115.074 119.784 115.858 119.096 116.098 117.832L117.602 118.136C117.458 119.08 117.042 119.848 116.354 120.408C115.682 120.968 114.85 121.24 113.874 121.24C111.522 121.24 109.89 119.416 109.89 116.76ZM119.148 121V109.32H120.716V113.272H120.748C121.244 112.68 122.14 112.28 123.036 112.28C124.972 112.28 126.236 113.544 126.236 115.48V121H124.668V115.768C124.668 114.504 123.948 113.736 122.732 113.736C121.516 113.736 120.716 114.552 120.716 115.768V121H119.148Z" fill="#667085"/>
<g style="mix-blend-mode:multiply">
<rect x="12" y="169" width="65" height="26" rx="13" fill="#FEF3F2"/>
<path d="M26.9439 176.818V187H25.4027V178.359H25.343L22.907 179.95V178.479L25.4474 176.818H26.9439ZM29.6982 187V185.886L33.1435 182.317C33.5114 181.929 33.8146 181.589 34.0533 181.298C34.2952 181.003 34.4759 180.723 34.5952 180.457C34.7145 180.192 34.7741 179.911 34.7741 179.612C34.7741 179.274 34.6946 178.982 34.5355 178.737C34.3764 178.489 34.1593 178.298 33.8842 178.165C33.6091 178.03 33.2992 177.962 32.9545 177.962C32.59 177.962 32.2718 178.036 32 178.185C31.7282 178.335 31.5194 178.545 31.3736 178.817C31.2277 179.089 31.1548 179.407 31.1548 179.771H29.6882C29.6882 179.152 29.8307 178.61 30.1158 178.146C30.4008 177.682 30.7919 177.322 31.2891 177.067C31.7862 176.808 32.3513 176.679 32.9844 176.679C33.6241 176.679 34.1875 176.807 34.6747 177.062C35.1652 177.314 35.5481 177.658 35.8232 178.096C36.0982 178.53 36.2358 179.021 36.2358 179.567C36.2358 179.945 36.1645 180.315 36.022 180.676C35.8828 181.037 35.6392 181.44 35.2912 181.884C34.9432 182.325 34.4593 182.86 33.8395 183.49L31.8161 185.608V185.683H36.3999V187H29.6982ZM43.5987 185.091V184.554C43.5987 184.17 43.6783 183.818 43.8374 183.5C43.9998 183.179 44.2351 182.922 44.5433 182.729C44.8549 182.534 45.2311 182.436 45.6719 182.436C46.1226 182.436 46.5005 182.532 46.8054 182.724C47.1103 182.917 47.3407 183.174 47.4964 183.495C47.6555 183.817 47.7351 184.17 47.7351 184.554V185.091C47.7351 185.475 47.6555 185.828 47.4964 186.15C47.3374 186.468 47.1037 186.725 46.7955 186.92C46.4905 187.113 46.116 187.209 45.6719 187.209C45.2244 187.209 44.8466 187.113 44.5384 186.92C44.2301 186.725 43.9964 186.468 43.8374 186.15C43.6783 185.828 43.5987 185.475 43.5987 185.091ZM44.7571 184.554V185.091C44.7571 185.376 44.825 185.634 44.9609 185.866C45.0968 186.098 45.3338 186.214 45.6719 186.214C46.0066 186.214 46.2403 186.098 46.3729 185.866C46.5054 185.634 46.5717 185.376 46.5717 185.091V184.554C46.5717 184.269 46.5071 184.01 46.3778 183.778C46.2519 183.546 46.0166 183.43 45.6719 183.43C45.3404 183.43 45.1051 183.546 44.9659 183.778C44.8267 184.01 44.7571 184.269 44.7571 184.554ZM38.478 179.264V178.727C38.478 178.343 38.5575 177.99 38.7166 177.668C38.879 177.347 39.1143 177.09 39.4226 176.898C39.7341 176.705 40.1103 176.609 40.5511 176.609C41.0019 176.609 41.3797 176.705 41.6847 176.898C41.9896 177.09 42.2199 177.347 42.3757 177.668C42.5315 177.99 42.6094 178.343 42.6094 178.727V179.264C42.6094 179.649 42.5298 180.002 42.3707 180.323C42.215 180.641 41.983 180.898 41.6747 181.094C41.3698 181.286 40.9953 181.382 40.5511 181.382C40.1004 181.382 39.7209 181.286 39.4126 181.094C39.1077 180.898 38.8757 180.641 38.7166 180.323C38.5575 180.002 38.478 179.649 38.478 179.264ZM39.6413 178.727V179.264C39.6413 179.549 39.7076 179.808 39.8402 180.04C39.9761 180.272 40.2131 180.388 40.5511 180.388C40.8826 180.388 41.1146 180.272 41.2472 180.04C41.383 179.808 41.451 179.549 41.451 179.264V178.727C41.451 178.442 41.3864 178.184 41.2571 177.952C41.1278 177.72 40.8925 177.604 40.5511 177.604C40.2197 177.604 39.9844 177.72 39.8452 177.952C39.7093 178.184 39.6413 178.442 39.6413 178.727ZM38.9503 187L45.9503 176.818H47.1385L40.1385 187H38.9503Z" fill="#B42318"/>
<path d="M67.6667 185.333L62.421 180.088C62.1569 179.824 62.0249 179.692 61.8727 179.642C61.7388 179.599 61.5946 179.599 61.4607 179.642C61.3085 179.692 61.1765 179.824 60.9125 180.088L59.0876 181.913C58.8236 182.177 58.6916 182.309 58.5394 182.358C58.4055 182.401 58.2613 182.401 58.1274 182.358C57.9751 182.309 57.8431 182.177 57.5791 181.913L54.3334 178.667M67.6667 185.333H63M67.6667 185.333V180.667" stroke="#B42318" stroke-width="2" stroke-linecap="round" stroke-linejoin="round"/>
</g>
</svg>
